<svg xmlns="http://www.w3.org/2000/svg" xmlns:xlink="http://www.w3.org/1999/xlink" width="1080" zoomAndPan="magnify" viewBox="0 0 810 809.999993" height="1080" preserveAspectRatio="xMidYMid meet" version="1.0"><defs><clipPath id="a17511f922"><path d="M 806.046875 368 L 809.863281 368 L 809.863281 401.894531 L 806.046875 401.894531 Z M 806.046875 368 " clip-rule="nonzero"/></clipPath><clipPath id="f4b470b14d"><path d="M 13 4.050781 L 802 4.050781 L 802 805.800781 L 13 805.800781 Z M 13 4.050781 " clip-rule="nonzero"/></clipPath><clipPath id="7df702a255"><path d="M 280 697 L 408 697 L 408 805.800781 L 280 805.800781 Z M 280 697 " clip-rule="nonzero"/></clipPath><clipPath id="625993b25e"><path d="M 291 716 L 389 716 L 389 805.800781 L 291 805.800781 Z M 291 716 " clip-rule="nonzero"/></clipPath><clipPath id="60876c821e"><path d="M 372.261719 11 L 809.863281 11 L 809.863281 285 L 372.261719 285 Z M 372.261719 11 " clip-rule="nonzero"/></clipPath></defs><path fill="#1b1918" d="M 722.832031 184.300781 L 720.769531 181.609375 L 718.582031 179.011719 L 709.8125 168.664062 L 716.09375 177.980469 L 719.21875 182.625 L 722.121094 187.421875 L 727.441406 193.351562 C 729.207031 195.34375 731.058594 197.28125 732.6875 199.378906 L 742.789062 211.824219 C 737.574219 204.378906 732.640625 196.773438 726.964844 189.691406 L 722.832031 184.300781 " fill-opacity="1" fill-rule="nonzero"/><path fill="#1b1918" d="M 803.769531 352.128906 C 803.550781 351.300781 803.335938 350.542969 803.128906 349.859375 C 802.71875 348.488281 802.34375 347.414062 802.003906 346.699219 L 802.976562 348.15625 C 802.976562 348.15625 801.585938 343.511719 799.554688 337.308594 C 799.023438 335.765625 798.554688 334.097656 797.867188 332.425781 C 797.199219 330.753906 796.511719 329.027344 795.816406 327.292969 C 794.402344 323.835938 792.925781 320.375 791.488281 317.285156 C 793.332031 322.125 795.027344 328.070312 796.566406 334.140625 C 797.789062 340.285156 799.027344 346.511719 800.105469 351.921875 C 801.871094 362.585938 803.570312 370.035156 806.492188 367.042969 C 805.742188 362.445312 805.011719 358.246094 804.328125 354.816406 C 804.132812 353.863281 803.945312 352.960938 803.769531 352.128906 " fill-opacity="1" fill-rule="nonzero"/><g clip-path="url(#a17511f922)"><path fill="#1b1918" d="M 806.753906 368.667969 C 806.726562 368.476562 806.695312 368.289062 806.664062 368.097656 C 806.667969 369.261719 806.6875 370.398438 806.714844 371.480469 C 806.699219 372.953125 806.722656 374.355469 806.777344 375.722656 C 806.882812 378.453125 807.121094 381.03125 807.453125 383.664062 C 807.753906 386.296875 808.28125 388.976562 808.648438 391.933594 C 809.015625 394.890625 809.410156 398.101562 809.863281 401.769531 C 809.410156 391.527344 808.160156 379.175781 806.753906 368.667969 " fill-opacity="1" fill-rule="nonzero"/></g><path fill="#1b1918" d="M 806.492188 367.042969 C 806.550781 367.390625 806.605469 367.746094 806.664062 368.097656 C 806.664062 367.691406 806.65625 367.296875 806.660156 366.882812 C 806.601562 366.949219 806.550781 366.980469 806.492188 367.042969 " fill-opacity="1" fill-rule="nonzero"/><path fill="#1b1918" d="M 802.585938 392.707031 C 802.6875 393.96875 802.808594 394.542969 802.941406 394.652344 C 803.210938 394.875 803.535156 393.253906 803.867188 391.578125 C 804.191406 389.910156 804.414062 388.195312 804.75 388.238281 C 805.054688 388.289062 805.535156 390.09375 805.699219 395.503906 C 805.871094 396.96875 805.867188 395.710938 805.726562 392.980469 C 805.6875 392.296875 805.640625 391.523438 805.59375 390.675781 C 805.503906 389.832031 805.402344 388.917969 805.292969 387.945312 C 805.058594 386.011719 804.800781 383.859375 804.535156 381.652344 C 804.253906 379.441406 803.949219 377.179688 803.636719 375.015625 C 803.46875 373.933594 803.308594 372.875 803.15625 371.863281 C 802.964844 370.851562 802.742188 369.886719 802.546875 368.988281 C 801.734375 365.386719 800.988281 362.792969 800.476562 362.429688 C 800.5 363.847656 800.835938 365.890625 801.285156 368.210938 C 801.519531 369.371094 801.769531 370.597656 802.015625 371.847656 C 802.210938 373.109375 802.402344 374.394531 802.589844 375.648438 C 803.292969 380.683594 803.644531 385.359375 802.140625 386.660156 C 802.351562 389.507812 802.492188 391.449219 802.585938 392.707031 " fill-opacity="1" fill-rule="nonzero"/><path fill="#1b1918" d="M 800.167969 467.597656 C 800.246094 467.027344 800.320312 466.464844 800.398438 465.90625 C 800.554688 464.789062 800.707031 463.6875 800.859375 462.582031 C 801.050781 461.226562 801.238281 459.859375 801.421875 458.480469 C 801.28125 458.90625 801.144531 459.382812 801.007812 459.941406 C 800.726562 461.113281 800.453125 462.621094 800.195312 464.648438 C 800.054688 465.660156 799.96875 466.804688 799.789062 468.09375 C 799.601562 469.378906 799.417969 470.816406 799.226562 472.425781 C 799.261719 472.382812 799.292969 472.355469 799.335938 472.3125 C 799.507812 471.285156 799.683594 470.277344 799.859375 469.300781 C 799.960938 468.726562 800.066406 468.160156 800.167969 467.597656 " fill-opacity="1" fill-rule="nonzero"/><path fill="#1b1918" d="M 797.460938 485.054688 C 797.296875 486.605469 796.996094 488.207031 796.734375 489.910156 C 796.476562 491.609375 796.203125 493.394531 795.917969 495.277344 C 796.679688 492.027344 797.5625 488.789062 798.226562 485.511719 L 800.117188 475.65625 C 800.558594 477.292969 800.558594 479.636719 800.339844 482.285156 C 800.226562 483.613281 800.0625 485.007812 799.867188 486.4375 C 799.675781 487.863281 799.339844 489.292969 799.070312 490.714844 C 797.929688 496.382812 796.832031 501.667969 797.726562 503.5625 C 799.019531 502.980469 801.800781 492.890625 803.171875 489.757812 C 801.347656 487.261719 802.113281 481.335938 802.671875 476.65625 C 803.28125 471.441406 803.546875 467.851562 799.335938 472.3125 C 799.101562 473.683594 798.867188 475.097656 798.640625 476.574219 C 798.238281 479.167969 797.84375 481.957031 797.460938 485.054688 " fill-opacity="1" fill-rule="nonzero"/><path fill="#1b1918" d="M 806.101562 437.484375 L 803.089844 429.617188 C 803.117188 437.226562 802.9375 443.273438 802.636719 448.511719 C 802.257812 452.132812 801.84375 455.363281 801.421875 458.480469 C 801.871094 457.125 802.335938 456.359375 802.820312 455.574219 C 804.019531 453.503906 805.65625 451.269531 806.101562 437.484375 " fill-opacity="1" fill-rule="nonzero"/><path fill="#1b1918" d="M 803.953125 490.515625 C 804.058594 488.351562 803.730469 488.476562 803.171875 489.757812 C 803.394531 490.0625 803.648438 490.324219 803.953125 490.515625 " fill-opacity="1" fill-rule="nonzero"/><path fill="#1b1918" d="M 747.675781 621.664062 L 743.933594 627.804688 C 743.640625 628.234375 743.429688 628.554688 743.277344 628.785156 C 743.191406 628.933594 743.105469 629.078125 743.023438 629.222656 C 743.398438 628.902344 751.179688 617.980469 750.4375 617.109375 L 749.542969 618.597656 L 747.675781 621.664062 " fill-opacity="1" fill-rule="nonzero"/><path fill="#1b1918" d="M 778.402344 560.003906 C 779.15625 558.671875 779.949219 557.152344 780.730469 555.511719 C 780.042969 556.75 779.273438 558.28125 778.402344 560.003906 " fill-opacity="1" fill-rule="nonzero"/><g clip-path="url(#f4b470b14d)"><path fill="#1b1918" d="M 659.285156 714.96875 C 657.925781 716.21875 656.152344 717.359375 654.15625 718.375 C 653.839844 718.550781 653.523438 718.71875 653.210938 718.890625 C 655.929688 716.679688 658.625 714.4375 661.28125 712.15625 C 660.90625 713.199219 660.207031 714.121094 659.285156 714.96875 Z M 749.398438 610.417969 C 748.09375 612.066406 746.875 613.703125 745.546875 615.222656 C 744.199219 616.734375 742.878906 618.210938 741.578125 619.664062 C 739.90625 621.519531 738.28125 623.324219 736.679688 625.105469 C 774.871094 564.949219 797.003906 493.59375 797.003906 417.066406 C 797.003906 367.015625 787.539062 319.175781 770.304688 275.230469 C 771.046875 276.570312 771.917969 278.21875 772.953125 280.238281 C 771.515625 276.972656 770.160156 273.808594 768.867188 270.726562 C 767.535156 267.660156 766.425781 264.601562 765.039062 261.746094 C 763.722656 258.859375 762.460938 256.035156 761.242188 253.25 C 760.632812 251.855469 760.03125 250.476562 759.4375 249.101562 C 759.140625 248.417969 758.847656 247.730469 758.554688 247.046875 C 758.234375 246.382812 757.910156 245.714844 757.589844 245.046875 C 755.066406 239.707031 752.605469 234.496094 750.132812 229.265625 C 747.460938 224.128906 744.78125 218.96875 742.019531 213.652344 C 744.449219 220.273438 746.121094 222.578125 750.050781 231.542969 C 749.332031 230.246094 748.542969 228.917969 747.734375 227.578125 C 737.171875 208.703125 725.089844 190.800781 711.640625 174.039062 L 711.703125 174.058594 C 710.808594 172.355469 709.632812 170.398438 708.222656 168.234375 C 706.796875 166.089844 704.988281 163.851562 703.058594 161.390625 C 701.109375 158.945312 698.964844 156.335938 696.671875 153.597656 C 695.558594 152.207031 694.253906 150.914062 692.984375 149.535156 C 691.691406 148.179688 690.375 146.785156 689.03125 145.371094 C 678.441406 133.90625 664.921875 122.328125 652.476562 111.824219 C 655.085938 114.195312 657.601562 116.671875 660.15625 119.089844 C 662.695312 121.523438 665.269531 123.914062 667.761719 126.382812 C 667.226562 126.347656 666.988281 126.558594 666.964844 126.953125 C 657.800781 118.78125 648.25 111.03125 638.339844 103.742188 C 637.917969 103.226562 637.5 102.714844 637.074219 102.214844 C 635.976562 100.921875 634.765625 99.785156 633.460938 98.601562 C 630.828125 96.265625 627.640625 94.003906 623.09375 91.6875 C 625.707031 94.023438 627.574219 95.742188 628.871094 96.996094 C 623.925781 93.582031 618.902344 90.285156 613.800781 87.09375 C 613.769531 86.203125 613.015625 85.023438 610.304688 83.007812 C 605.128906 80.628906 606.976562 82.34375 609.414062 84.375 C 606.382812 82.535156 603.316406 80.75 600.234375 78.992188 C 599.46875 78.503906 598.753906 78.085938 598.078125 77.730469 C 597.726562 77.542969 597.386719 77.375 597.054688 77.21875 C 590.457031 73.542969 583.75 70.035156 576.921875 66.742188 L 585.691406 68.960938 C 575.433594 64.613281 563.550781 59.890625 550.851562 55.328125 C 530.695312 47.375 509.714844 41.074219 488.074219 36.554688 L 491.566406 34.070312 C 488.292969 33.800781 484.726562 33.355469 481.1875 32.785156 C 479.417969 32.496094 477.65625 32.175781 475.941406 31.828125 C 474.222656 31.492188 472.527344 31.253906 470.933594 30.925781 C 464.550781 29.664062 459.546875 28.011719 458.597656 26.234375 C 463.683594 27.113281 468.253906 27.765625 472.421875 28.257812 C 473.464844 28.375 474.484375 28.484375 475.476562 28.59375 C 476.460938 28.734375 477.421875 28.871094 478.359375 29.003906 C 480.238281 29.265625 482.023438 29.484375 483.738281 29.679688 C 487.164062 30.054688 490.289062 30.3125 493.195312 30.507812 C 494.65625 30.582031 496.046875 30.722656 497.386719 30.871094 C 498.734375 31.007812 500.042969 31.136719 501.308594 31.261719 C 506.398438 31.785156 511.027344 32.191406 515.808594 33.261719 C 520.554688 34.464844 525.496094 36.179688 531.253906 38.949219 C 527.886719 39.332031 529.589844 39.144531 531.902344 40.835938 C 537.222656 41.339844 544.671875 42.617188 553.117188 44.789062 C 557.257812 46.074219 561.632812 47.609375 566.078125 49.417969 C 568.289062 50.34375 570.558594 51.25 572.746094 52.394531 C 574.929688 53.550781 577.105469 54.777344 579.25 56.078125 L 571.453125 54.832031 C 585.804688 61.566406 600.5 69.207031 614.199219 77.847656 C 617.640625 79.976562 621.058594 82.101562 624.449219 84.199219 C 627.75 86.445312 631.019531 88.667969 634.242188 90.863281 C 640.804688 95.09375 646.824219 99.722656 652.757812 103.90625 C 649.917969 100.699219 650.535156 100.089844 653.226562 101.253906 C 654.570312 101.835938 656.425781 102.859375 658.625 104.226562 C 660.789062 105.625 663.191406 107.480469 665.785156 109.515625 C 680.710938 123.183594 660.136719 106.808594 665.535156 113.539062 C 666.371094 114.933594 667.582031 116.4375 669.089844 118.023438 C 669.839844 118.816406 670.667969 119.628906 671.554688 120.457031 C 672.425781 121.304688 673.335938 122.191406 674.285156 123.109375 C 678.109375 126.757812 682.816406 130.570312 687.554688 134.480469 C 692.15625 138.53125 696.910156 142.558594 701.152344 146.242188 C 705.246094 150.054688 708.746094 153.582031 711.132812 156.3125 C 710.222656 155.609375 711.257812 157.175781 713.019531 159.625 C 713.460938 160.234375 713.949219 160.902344 714.460938 161.605469 C 714.945312 162.328125 715.449219 163.089844 715.964844 163.863281 C 716.980469 165.414062 718.027344 167.015625 718.984375 168.472656 C 722.746094 174.347656 724.664062 178.101562 715.789062 168.460938 C 718.128906 171.625 720.457031 174.609375 722.761719 177.460938 C 723.941406 178.859375 724.992188 180.320312 726.070312 181.726562 C 727.152344 183.128906 728.21875 184.507812 729.265625 185.859375 C 731.382812 188.558594 733.46875 191.148438 735.503906 193.65625 C 737.460938 196.21875 739.285156 198.761719 741.085938 201.21875 C 742.882812 203.683594 744.605469 206.097656 746.242188 208.492188 C 747.085938 209.675781 747.808594 210.90625 748.519531 212.128906 C 749.234375 213.351562 749.921875 214.570312 750.582031 215.789062 C 751.90625 218.226562 753.117188 220.667969 754.195312 223.128906 C 754.730469 224.359375 755.238281 225.597656 755.703125 226.84375 C 756.140625 228.105469 756.5 229.398438 756.839844 230.691406 C 758.148438 231.738281 760.167969 233.679688 762.441406 236.3125 C 764.683594 238.960938 767.347656 242.222656 769.382812 246.136719 L 766.035156 247.082031 L 772.660156 255.652344 C 774.925781 260.464844 776.128906 264.996094 777.167969 269.207031 C 777.679688 271.316406 778.121094 273.359375 778.535156 275.363281 C 778.941406 277.375 779.378906 279.316406 779.664062 281.316406 C 780.308594 285.285156 781.035156 289.203125 782.199219 293.320312 C 782.75 295.386719 783.550781 297.464844 784.242188 299.707031 C 784.988281 301.9375 785.878906 304.25 786.96875 306.683594 C 786.28125 304.773438 785.308594 301.851562 784.699219 299.265625 C 784.109375 296.671875 783.664062 294.480469 784.449219 293.894531 C 785.292969 294.113281 786.898438 296.625 788.472656 300.269531 C 790.101562 303.894531 791.976562 308.5625 793.800781 312.949219 C 794.761719 315.128906 795.460938 317.300781 796.242188 319.195312 C 796.996094 321.101562 797.710938 322.761719 798.355469 324.007812 C 799.644531 326.5 800.65625 327.339844 801.136719 325.128906 C 798.925781 319.496094 796.855469 313.863281 794.292969 308.398438 C 798.6875 313.703125 791.539062 291.285156 794.824219 295.21875 C 793.417969 291.390625 791.90625 287.601562 790.449219 283.796875 C 788.960938 280 787.578125 276.179688 785.855469 272.480469 L 780.90625 261.324219 L 779.671875 258.539062 L 778.308594 255.8125 L 775.578125 250.359375 L 777.6875 248.324219 C 778.820312 252.03125 780.050781 255.679688 781.082031 259.402344 C 783.816406 262.109375 784.609375 262.128906 784.214844 260.367188 C 784.011719 259.492188 783.554688 258.15625 782.816406 256.539062 C 782.050781 254.929688 781.074219 253.003906 779.980469 250.894531 C 778.890625 248.78125 777.699219 246.46875 776.480469 244.09375 C 775.261719 241.710938 774.085938 239.238281 772.800781 236.898438 C 770.328125 232.167969 768.238281 227.589844 767.382812 224.011719 L 765.179688 224.753906 C 764.125 222.3125 762.964844 220.230469 762.003906 218.296875 C 761.03125 216.371094 760.164062 214.652344 759.386719 213.117188 C 757.839844 210.03125 756.671875 207.652344 755.769531 205.761719 C 753.867188 202.035156 752.988281 200.289062 752.300781 198.691406 C 751.597656 197.101562 751.015625 195.707031 749.523438 192.789062 C 748.773438 191.328125 747.796875 189.484375 746.457031 187.042969 C 745.011719 184.675781 743.179688 181.726562 740.808594 177.984375 C 738.015625 175.550781 735.335938 173.058594 732.480469 170.726562 C 731.808594 170.242188 736.964844 176.222656 741.921875 182.546875 C 743.164062 184.128906 744.390625 185.730469 745.511719 187.253906 C 746.585938 188.808594 747.507812 190.3125 748.257812 191.617188 C 749.753906 194.234375 750.457031 196.117188 749.65625 196.464844 C 747.902344 194.242188 746.113281 191.898438 744.300781 189.453125 C 742.40625 187.070312 740.449219 184.605469 738.449219 182.082031 C 736.472656 179.550781 734.457031 176.960938 732.414062 174.339844 C 730.363281 171.734375 728.109375 169.21875 725.945312 166.632812 C 723.753906 164.078125 721.546875 161.507812 719.355469 158.949219 C 717.113281 156.449219 714.730469 154.082031 712.433594 151.710938 C 710.121094 149.359375 707.816406 147.066406 705.535156 144.863281 C 703.226562 142.6875 700.800781 140.730469 698.488281 138.820312 C 701.320312 140.375 704.246094 141.867188 707.042969 143.515625 L 713.632812 147.511719 C 710.457031 145.175781 707.617188 140.8125 703.605469 135.511719 C 701.285156 132.339844 698.667969 128.742188 695.5625 124.886719 C 692.292969 121.195312 688.511719 117.261719 684.046875 113.289062 L 690.871094 121.003906 L 694.273438 124.855469 C 695.410156 126.128906 696.4375 127.511719 697.519531 128.835938 C 693.691406 126.578125 688.929688 123.253906 683.914062 118.929688 C 682.648438 117.855469 681.363281 116.726562 680.054688 115.554688 C 679.402344 114.96875 678.742188 114.371094 678.074219 113.769531 C 677.378906 113.195312 676.683594 112.609375 675.976562 112.023438 C 673.160156 109.652344 670.265625 107.152344 667.3125 104.585938 C 665.839844 103.304688 664.351562 102.007812 662.855469 100.703125 C 661.296875 99.472656 659.734375 98.238281 658.171875 96.996094 C 654.25 93.925781 650.304688 90.867188 646.398438 87.980469 C 646.390625 87.972656 646.386719 87.96875 646.378906 87.960938 C 645.566406 87.425781 644.757812 86.890625 643.957031 86.359375 C 642.347656 85.304688 640.742188 84.28125 639.160156 83.296875 C 635.992188 81.332031 632.894531 79.515625 629.902344 77.933594 C 635.957031 82.125 641.988281 86.3125 642.0625 88.320312 C 639.066406 87.222656 634.15625 84.027344 629 80.28125 C 627.730469 79.324219 626.378906 78.425781 625.039062 77.515625 C 623.710938 76.59375 622.386719 75.671875 621.097656 74.769531 C 618.527344 72.953125 616.113281 71.1875 614.082031 69.652344 C 615.679688 68.886719 619.976562 70.429688 625.488281 73.085938 C 626.867188 73.75 628.320312 74.480469 629.824219 75.265625 C 631.292969 76.113281 632.800781 77.019531 634.339844 77.953125 C 637.417969 79.828125 640.601562 81.828125 643.714844 83.800781 C 645.261719 84.796875 646.835938 85.726562 648.285156 86.734375 C 649.738281 87.746094 651.148438 88.730469 652.488281 89.664062 C 655.1875 91.53125 657.640625 93.1875 659.679688 94.453125 C 663.757812 96.992188 666.191406 98.003906 665.585938 96.078125 C 662.53125 93.644531 659.457031 91.351562 656.390625 89.179688 C 654.863281 88.09375 653.332031 87.039062 651.808594 86.011719 C 650.292969 84.980469 648.777344 83.972656 647.203125 83.097656 C 644.09375 81.289062 641.015625 79.582031 638.011719 77.949219 C 636.507812 77.144531 635.023438 76.347656 633.554688 75.5625 C 632.082031 74.785156 630.652344 73.992188 629.167969 73.335938 C 623.296875 70.59375 617.785156 68.058594 612.78125 65.507812 C 607.707031 63.082031 603.035156 60.820312 599.0625 58.199219 C 604.070312 59.675781 609.164062 61.09375 614.199219 62.695312 C 609.671875 60.503906 605.066406 58.476562 600.519531 56.375 L 604.269531 58.710938 C 602.539062 58.542969 600.628906 57.863281 598.570312 56.871094 C 597.542969 56.371094 596.472656 55.792969 595.371094 55.15625 C 594.824219 54.828125 594.261719 54.5 593.6875 54.160156 C 593.109375 53.84375 592.515625 53.511719 591.914062 53.179688 C 587.109375 50.511719 581.75 47.3125 576.179688 45.113281 L 584.839844 45.496094 L 579.808594 43.046875 C 578.136719 42.234375 576.472656 41.378906 574.746094 40.679688 L 564.460938 36.277344 L 566.707031 38.238281 C 549.910156 31.71875 533.871094 26.808594 518.304688 21.875 C 514.367188 20.773438 510.464844 19.675781 506.574219 18.589844 C 502.675781 17.519531 498.839844 16.242188 494.914062 15.359375 C 487.085938 13.484375 479.335938 11.195312 471.347656 9.597656 L 476.035156 10.679688 C 477.59375 11.035156 479.152344 11.390625 480.691406 11.855469 L 489.9375 14.464844 C 488.210938 14.851562 478.023438 12.769531 469.308594 11.140625 C 469.882812 11.753906 471.789062 12.398438 474.292969 13.050781 C 475.542969 13.378906 476.945312 13.695312 478.402344 14.027344 C 479.847656 14.414062 481.351562 14.8125 482.820312 15.195312 C 488.691406 16.730469 494.007812 18.132812 492.9375 18.851562 C 489.167969 18.007812 485.8125 17.21875 482.765625 16.472656 C 481.246094 16.09375 479.800781 15.730469 478.421875 15.382812 C 477.03125 15.078125 475.707031 14.789062 474.433594 14.507812 C 469.34375 13.378906 465.085938 12.296875 460.828125 11.1875 C 458.699219 10.589844 456.546875 10.167969 454.296875 9.683594 C 452.039062 9.222656 449.675781 8.738281 447.109375 8.207031 C 444.53125 7.707031 441.746094 7.164062 438.632812 6.628906 C 435.511719 6.226562 432.066406 5.8125 428.191406 5.390625 C 426.554688 5.988281 431.492188 7.597656 433.585938 9.042969 C 435.691406 10.492188 434.984375 11.769531 422.359375 11.75 C 423.40625 10.324219 418.464844 8.925781 415.316406 7.941406 C 412.179688 6.886719 410.84375 5.8125 419.355469 4.433594 C 408.359375 5.398438 404.222656 4.820312 400.589844 4.375 C 398.773438 4.121094 397.097656 4.085938 394.785156 4.269531 C 392.476562 4.46875 389.53125 4.96875 385.207031 6.027344 C 387.308594 5.753906 390.542969 5.785156 393.761719 5.828125 C 399.488281 7.460938 384.609375 7.996094 378.640625 8.769531 C 373.574219 8.171875 369.582031 7.542969 364.804688 7.183594 C 360.015625 6.726562 354.488281 6.96875 346.3125 7.851562 L 342.046875 8.699219 C 340.628906 8.972656 339.207031 9.253906 337.804688 9.628906 L 329.363281 11.714844 L 320.949219 13.816406 C 318.15625 14.578125 315.398438 15.449219 312.628906 16.265625 C 311.152344 16.136719 312.558594 15.097656 312.558594 15.097656 C 308.574219 16.222656 304.527344 17.273438 300.488281 18.355469 C 296.488281 19.589844 292.464844 20.789062 288.457031 21.964844 C 286.449219 22.546875 284.445312 23.132812 282.449219 23.714844 C 280.464844 24.335938 278.507812 25.027344 276.554688 25.675781 C 272.644531 26.988281 268.773438 28.285156 264.96875 29.5625 C 263.054688 30.164062 261.21875 30.933594 259.378906 31.636719 C 257.550781 32.355469 255.734375 33.066406 253.945312 33.769531 C 250.378906 35.207031 246.863281 36.527344 243.550781 38.011719 C 236.988281 41.105469 230.871094 44.003906 225.625 47.019531 C 224.488281 48.371094 222.078125 50.496094 221.9375 51.246094 C 221.863281 51.621094 222.359375 51.652344 223.847656 51.074219 C 225.355469 50.519531 227.804688 49.238281 231.859375 47.417969 C 228.988281 49.394531 225.824219 51.449219 222.390625 53.34375 C 218.957031 55.234375 215.277344 57.003906 211.5 58.6875 C 207.804688 60.5 204.042969 62.285156 200.355469 63.972656 C 196.679688 65.679688 193.03125 67.226562 189.828125 69.023438 C 192.695312 65.8125 195.816406 62.960938 198.871094 59.9375 C 196.617188 61.269531 194.328125 62.625 192.015625 63.992188 C 189.726562 65.386719 187.464844 66.890625 185.144531 68.335938 C 182.828125 69.789062 180.492188 71.25 178.140625 72.722656 C 176.960938 73.453125 175.777344 74.183594 174.59375 74.917969 C 173.4375 75.703125 172.277344 76.488281 171.117188 77.273438 C 166.488281 80.433594 161.761719 83.558594 157.101562 86.789062 C 152.550781 90.183594 148 93.582031 143.46875 96.964844 C 125.652344 110.894531 109.621094 126.394531 98.082031 141.578125 L 104.621094 138 C 103.144531 139.691406 101.664062 141.378906 100.191406 143.0625 C 98.769531 144.789062 97.351562 146.515625 95.941406 148.230469 C 93.117188 151.65625 90.277344 155.015625 87.460938 158.304688 C 84.71875 161.652344 82.140625 165.042969 79.535156 168.292969 C 78.238281 169.921875 76.957031 171.53125 75.695312 173.117188 C 75.058594 173.914062 74.433594 174.703125 73.804688 175.488281 C 73.21875 176.296875 72.640625 177.101562 72.0625 177.898438 C 69.765625 181.097656 67.542969 184.199219 65.40625 187.167969 C 64.355469 188.664062 63.320312 190.128906 62.308594 191.558594 C 61.285156 192.972656 60.453125 194.464844 59.5625 195.859375 C 56.09375 201.511719 53.148438 206.625 51.027344 211.066406 C 59.480469 200.90625 57.582031 205.132812 53.304688 212.714844 C 51.328125 216.605469 48.777344 221.375 46.5625 225.613281 C 45.464844 227.742188 44.40625 229.714844 43.621094 231.421875 C 42.871094 233.144531 42.300781 234.554688 42.015625 235.464844 C 42.800781 234.023438 43.609375 232.53125 44.441406 231 C 45.308594 229.496094 46.195312 227.953125 47.101562 226.382812 C 48.878906 223.234375 50.660156 219.960938 52.414062 216.65625 C 53.3125 215.023438 54.105469 213.320312 55.066406 211.730469 C 56 210.121094 56.921875 208.519531 57.832031 206.941406 C 59.632812 203.765625 61.378906 200.679688 63.027344 197.769531 C 64.609375 194.8125 66.3125 192.179688 67.808594 189.777344 C 69.3125 187.382812 70.648438 185.253906 71.761719 183.484375 C 73.410156 180.90625 74.597656 179.128906 75.203125 178.425781 L 74.457031 178.992188 C 75.476562 177.277344 76.605469 175.640625 77.742188 174.003906 L 81.132812 169.078125 C 83.410156 165.804688 85.644531 162.488281 87.976562 159.242188 L 95.269531 149.71875 C 97.714844 146.558594 100.09375 143.320312 102.746094 140.316406 L 104.929688 143.039062 C 103.984375 141.273438 106.4375 137.5625 110.480469 133.03125 C 111.488281 131.898438 112.59375 130.714844 113.769531 129.5 C 114.957031 128.285156 116.300781 127.132812 117.636719 125.921875 C 120.335938 123.515625 123.203125 121.054688 126.007812 118.675781 C 127.414062 117.496094 128.773438 116.289062 130.152344 115.203125 C 131.542969 114.121094 132.886719 113.074219 134.167969 112.082031 C 136.710938 110.085938 138.949219 108.28125 140.644531 106.773438 C 144.035156 103.75 145.28125 101.894531 142.453125 102.128906 C 143.664062 100.960938 144.914062 100.035156 146.0625 99.175781 C 147.214844 98.320312 148.300781 97.582031 149.3125 96.945312 C 151.335938 95.667969 153.0625 94.808594 154.449219 94.300781 C 157.238281 93.289062 158.6875 93.691406 158.542969 94.972656 L 162.03125 91.886719 L 165.652344 88.964844 L 172.917969 83.121094 C 177.691406 79.109375 182.835938 75.617188 187.855469 71.910156 C 192.140625 70.820312 187.289062 78 183.511719 80.128906 C 181.980469 81.132812 180.300781 82.167969 178.652344 83.441406 C 177.007812 84.71875 175.277344 86.058594 173.496094 87.445312 C 171.722656 88.839844 169.894531 90.273438 168.039062 91.738281 C 166.199219 93.210938 164.261719 94.601562 162.464844 96.175781 C 158.808594 99.238281 155.101562 102.203125 151.484375 104.785156 C 149.652344 106.054688 147.886719 107.277344 146.210938 108.433594 C 144.515625 109.570312 142.855469 110.574219 141.242188 111.40625 C 137.367188 116.132812 140.082031 114.992188 141.324219 114.945312 C 141.945312 114.921875 142.203125 115.167969 141.105469 116.53125 C 140.558594 117.214844 139.667969 118.175781 138.316406 119.53125 C 137.632812 120.195312 136.84375 120.96875 135.929688 121.863281 C 135.019531 122.757812 134.035156 123.824219 132.882812 124.992188 C 128.566406 128.484375 124.152344 132.101562 119.875 135.980469 C 115.722656 139.976562 111.582031 144.109375 107.480469 148.304688 C 103.488281 152.59375 99.707031 157.101562 95.886719 161.523438 C 94.945312 162.640625 93.976562 163.726562 93.066406 164.863281 C 92.183594 166.015625 91.300781 167.164062 90.421875 168.3125 C 88.667969 170.613281 86.925781 172.898438 85.199219 175.160156 C 84.339844 176.292969 83.480469 177.421875 82.628906 178.542969 C 81.777344 179.664062 80.910156 180.769531 80.144531 181.9375 C 78.566406 184.234375 77.007812 186.507812 75.46875 188.742188 C 72.414062 193.230469 69.28125 197.484375 66.660156 201.796875 C 63.941406 206.054688 61.289062 210.101562 58.714844 213.875 C 56.226562 217.695312 53.976562 221.347656 51.691406 224.601562 C 56.148438 218.914062 59.664062 212.566406 56.894531 221.371094 C 52.738281 227.199219 48.328125 232.945312 44.546875 239.074219 C 45.285156 237.363281 46.054688 235.59375 46.972656 233.714844 L 43.765625 240.261719 L 44.546875 239.074219 C 42.777344 243.15625 41.429688 246.84375 40.289062 250.234375 C 39.6875 251.914062 39.292969 253.589844 38.863281 255.179688 C 38.441406 256.773438 38.042969 258.304688 37.648438 259.796875 C 36.085938 265.773438 34.214844 270.898438 31.144531 276.578125 C 31.339844 279.132812 34.367188 271.835938 38.789062 263.007812 C 42.84375 254.011719 48.566406 243.636719 51.617188 238.882812 C 51.453125 243.542969 50.167969 247.773438 48.273438 251.84375 C 47.800781 252.859375 47.285156 253.867188 46.742188 254.867188 C 46.242188 255.886719 45.730469 256.90625 45.183594 257.917969 C 44.101562 259.945312 42.933594 261.960938 41.746094 263.984375 C 39.417969 268.046875 36.8125 272.074219 35.179688 276.464844 C 33.449219 280.808594 32.210938 285.324219 32.054688 290.066406 C 32.882812 294.476562 36.507812 283.625 39.980469 273.671875 C 43.9375 263.898438 47.664062 255.050781 47.335938 263.125 L 42.210938 273.945312 C 40.625 277.605469 39.140625 281.316406 37.601562 285.007812 C 38.949219 283.34375 40.140625 281.507812 41.21875 279.5625 C 42.320312 277.628906 43.167969 275.523438 44.191406 273.464844 C 46.140625 269.308594 47.738281 264.929688 49.230469 260.820312 C 50.636719 256.679688 52.316406 252.984375 53.925781 250.050781 C 55.558594 247.125 57.261719 245.015625 59.21875 244.285156 C 58.953125 245.339844 58.535156 246.59375 58.011719 247.976562 C 55.117188 253.957031 52.367188 260.023438 49.777344 266.167969 C 48.664062 268.488281 47.585938 270.636719 46.644531 272.421875 C 45.980469 273.691406 45.382812 274.78125 44.890625 275.617188 C 44.4375 276.46875 44.09375 277.066406 43.867188 277.339844 C 43.4375 279.542969 44.003906 279.300781 44.933594 278.296875 C 42.125 285.632812 39.519531 293.066406 37.152344 300.609375 L 37.136719 300.488281 C 34.046875 309.824219 26.433594 333.789062 25.386719 345.1875 C 23.390625 345.230469 23.238281 338.132812 24.003906 329.578125 C 24.566406 325.34375 25.351562 320.761719 26.191406 316.546875 C 26.621094 314.441406 27.027344 312.421875 27.488281 310.609375 C 28 308.804688 28.496094 307.183594 28.949219 305.839844 C 24.011719 314.445312 20.414062 332.957031 18.816406 342.847656 L 21.355469 334.007812 L 22.628906 329.601562 L 24.117188 325.253906 C 23.714844 326.902344 23.375 328.429688 23.070312 329.851562 C 22.839844 331.289062 22.65625 332.617188 22.496094 333.855469 C 22.1875 336.332031 22.015625 338.441406 21.929688 340.316406 C 21.761719 344.066406 21.902344 346.859375 22.046875 349.769531 C 22.289062 352.703125 22.472656 355.730469 22.242188 359.90625 C 22.128906 362 21.90625 364.375 21.542969 367.179688 C 21.1875 369.980469 20.925781 373.238281 20.375 377.042969 C 19.398438 389.703125 18.707031 391.285156 17.511719 390.675781 C 16.367188 390.074219 15.03125 387.253906 13.988281 391.339844 C 14.136719 398.550781 14.226562 402.777344 14.273438 405.050781 C 14.367188 407.320312 14.5 407.644531 14.621094 407.050781 C 14.832031 405.851562 15.652344 400.988281 17.597656 400.675781 C 17.460938 403.792969 17.4375 406.574219 17.421875 409.144531 C 18.113281 409.09375 18.808594 409.066406 19.5 409.027344 C 19.441406 411.699219 19.394531 414.375 19.394531 417.066406 C 19.394531 421.398438 19.496094 425.710938 19.636719 430.011719 C 19.605469 430.007812 19.578125 430.003906 19.550781 430 C 19.589844 430.628906 19.660156 431.257812 19.703125 431.882812 C 21.894531 490.316406 36.960938 545.457031 62.191406 594.527344 C 62.050781 594.507812 61.914062 594.492188 61.773438 594.480469 C 62.636719 596.101562 63.503906 597.722656 64.367188 599.347656 C 65.164062 600.8125 65.902344 602.308594 66.746094 603.742188 C 67.601562 605.171875 68.453125 606.597656 69.304688 608.019531 C 71.003906 610.855469 72.695312 613.675781 74.359375 616.460938 C 74.890625 617.390625 75.453125 618.292969 76.027344 619.183594 C 144.285156 731.085938 267.511719 805.800781 408.203125 805.800781 C 482.75 805.800781 552.390625 784.804688 611.554688 748.429688 C 611.40625 748.988281 611.226562 749.578125 611.050781 750.167969 C 610.457031 752.261719 609.851562 754.164062 611.304688 754.558594 C 612.761719 754.957031 616.09375 753.515625 623.230469 748.769531 C 615.296875 752.6875 613.769531 751.480469 615.558594 748.539062 C 616.453125 747.066406 618.179688 745.15625 620.371094 743.21875 C 621.085938 742.582031 621.871094 741.945312 622.679688 741.320312 C 625.914062 739.179688 629.125 737 632.292969 734.765625 C 630.96875 736.65625 632.109375 736.6875 634.578125 735.535156 C 636.1875 734.78125 638.351562 733.53125 640.738281 731.984375 C 641.332031 731.59375 641.953125 731.195312 642.5625 730.757812 C 643.15625 730.304688 643.761719 729.835938 644.378906 729.359375 C 645.597656 728.402344 646.832031 727.390625 648.035156 726.355469 C 645.757812 728.089844 643.710938 729.554688 641.890625 730.671875 C 640.027344 731.738281 638.445312 732.511719 637.199219 733.007812 C 635.542969 733.660156 634.5 733.792969 634.15625 733.441406 C 637.804688 730.828125 641.398438 728.140625 644.957031 725.40625 C 644.695312 725.828125 644.453125 726.257812 644.257812 726.71875 C 644.398438 727.789062 646.3125 727.175781 649.328125 725.53125 C 650.835938 724.710938 652.617188 723.632812 654.585938 722.378906 C 655.5625 721.742188 656.597656 721.070312 657.664062 720.375 C 658.738281 719.671875 659.765625 718.847656 660.859375 718.046875 C 665.183594 714.785156 669.9375 711.183594 674.308594 707.789062 C 678.542969 704.253906 682.503906 701.039062 685.546875 698.878906 C 686.652344 697.71875 687.601562 696.695312 688.425781 695.777344 C 689.226562 694.839844 689.867188 693.988281 690.425781 693.246094 C 691.535156 691.75 692.234375 690.628906 692.707031 689.675781 C 693.652344 687.769531 693.699219 686.539062 694.257812 684.417969 C 695.183594 684.183594 696.460938 683.441406 697.914062 682.441406 C 699.367188 681.441406 701.035156 680.21875 702.5625 678.859375 C 705.691406 676.214844 708.832031 673.546875 710.679688 672.957031 C 711.621094 671.566406 712.554688 670.234375 713.480469 668.957031 C 714.40625 667.671875 715.351562 666.46875 716.183594 665.214844 C 717.898438 662.757812 719.59375 660.480469 721.28125 658.320312 C 722.964844 656.160156 724.644531 654.121094 726.316406 652.140625 C 726.734375 651.644531 727.148438 651.152344 727.5625 650.660156 L 728.734375 649.144531 C 729.523438 648.140625 730.300781 647.140625 731.082031 646.140625 C 734.183594 642.128906 737.367188 638.167969 740.375 633.640625 C 741.265625 632.21875 742.144531 630.75 743.023438 629.222656 C 742.976562 629.265625 743.046875 629.136719 743.277344 628.785156 C 745.167969 625.480469 747.039062 621.914062 748.878906 617.9375 C 749.820312 617.152344 750.292969 616.941406 750.4375 617.109375 L 750.476562 617.058594 L 751.332031 615.476562 L 750.207031 616.582031 C 751.9375 611.945312 754.445312 606.59375 757.363281 601.003906 C 758.414062 599.101562 759.371094 597.089844 760.347656 595.066406 C 759.351562 596.722656 758.386719 598.351562 757.265625 599.855469 C 754.609375 603.605469 751.976562 607.109375 749.398438 610.417969 " fill-opacity="1" fill-rule="nonzero"/></g><path fill="#1b1918" d="M 766.238281 583.613281 C 764.703125 586.484375 763.171875 589.414062 761.703125 592.34375 C 761.238281 593.246094 760.789062 594.160156 760.347656 595.066406 C 760.582031 594.6875 760.808594 594.308594 761.042969 593.921875 C 762.273438 591.863281 763.503906 589.734375 764.730469 587.53125 C 765.953125 585.328125 767.171875 583.050781 768.378906 580.691406 C 769.472656 578.277344 770.546875 575.78125 771.605469 573.203125 L 771.507812 573.273438 C 771.199219 573.886719 770.886719 574.503906 770.574219 575.125 C 769.195312 577.875 767.835938 580.769531 766.238281 583.613281 " fill-opacity="1" fill-rule="nonzero"/><path fill="#1b1918" d="M 784.671875 525.707031 C 784.027344 530.453125 782.757812 535.234375 781.292969 539.785156 C 780.921875 540.921875 780.570312 542.058594 780.144531 543.144531 C 779.695312 544.234375 779.253906 545.300781 778.820312 546.355469 C 777.925781 548.453125 777.0625 550.472656 776.246094 552.386719 C 775.433594 554.296875 774.679688 556.105469 774.046875 557.78125 C 773.402344 559.457031 772.917969 561.023438 772.464844 562.382812 C 771.625 565.136719 771.492188 567.3125 772.503906 568.753906 L 766.792969 576.828125 L 771.507812 573.273438 C 772.558594 571.199219 773.585938 569.207031 774.578125 567.332031 C 776.058594 564.652344 777.308594 562.171875 778.402344 560.003906 C 778.128906 560.488281 777.859375 560.953125 777.597656 561.382812 C 776.65625 563 775.640625 564.121094 775 564.667969 C 774.335938 565.203125 773.933594 565.117188 773.929688 564.214844 C 773.917969 563.3125 774.359375 561.605469 775.109375 558.789062 L 781.429688 550.972656 L 782.464844 544.675781 C 782.824219 542.582031 782.988281 540.433594 783.253906 538.328125 L 784.671875 525.707031 " fill-opacity="1" fill-rule="nonzero"/><path fill="#1b1918" d="M 788.421875 532.222656 L 785.933594 540.527344 C 785.511719 541.910156 785.132812 543.304688 784.671875 544.675781 L 783.226562 548.761719 C 784.769531 547.425781 786.363281 546.082031 787.882812 544.707031 C 793.183594 530.503906 791.753906 531.003906 790.410156 531.164062 C 789.738281 531.246094 789.089844 531.226562 789.296875 529.289062 C 788.996094 530.265625 788.703125 531.242188 788.421875 532.222656 " fill-opacity="1" fill-rule="nonzero"/><path fill="#1b1918" d="M 792.898438 515.480469 C 791.695312 519.417969 790.878906 522.378906 790.339844 524.601562 C 789.75 526.8125 789.386719 528.273438 789.296875 529.261719 C 789.296875 529.273438 789.296875 529.277344 789.296875 529.289062 C 789.839844 527.5 790.382812 525.714844 790.832031 523.898438 L 792.898438 515.480469 " fill-opacity="1" fill-rule="nonzero"/><path fill="#1b1918" d="M 787.414062 307.761719 C 787.234375 307.390625 787.136719 307.0625 786.96875 306.683594 C 787.695312 308.695312 788.117188 309.660156 787.414062 307.761719 " fill-opacity="1" fill-rule="nonzero"/><path fill="#1b1918" d="M 14.386719 378.386719 C 15.253906 373.148438 15.457031 368.484375 13.902344 366.546875 C 13.175781 369.269531 13.117188 373.640625 12.898438 378.519531 C 12.796875 380.960938 12.675781 383.535156 12.460938 386.097656 C 12.355469 387.945312 12.242188 389.792969 12.050781 391.59375 C 12.269531 389.988281 12.542969 388.238281 12.847656 386.421875 C 13.394531 383.777344 13.964844 381.007812 14.386719 378.386719 " fill-opacity="1" fill-rule="nonzero"/><path fill="#1b1918" d="M 12.050781 391.59375 C 11.945312 392.332031 11.851562 393.042969 11.777344 393.703125 C 11.886719 393.011719 11.972656 392.304688 12.050781 391.59375 " fill-opacity="1" fill-rule="nonzero"/><path fill="#1b1918" d="M 0.957031 365.722656 C 0.917969 364.429688 0.945312 362.71875 1 360.835938 C 0.730469 362.386719 0.492188 363.929688 0.324219 365.519531 L 0.957031 365.722656 " fill-opacity="1" fill-rule="nonzero"/><path fill="#1b1918" d="M 2.558594 366.195312 L 0.957031 365.722656 C 1.15625 368.441406 1.582031 369.414062 2.558594 366.195312 " fill-opacity="1" fill-rule="nonzero"/><path fill="#1b1918" d="M 3.515625 346.554688 C 1.285156 345.804688 0.199219 345.421875 2.835938 333.792969 C 2.097656 335.097656 1.523438 338.4375 1.039062 342.195312 C 0.472656 345.9375 0.425781 350.167969 0.148438 353.179688 L 1.054688 348.855469 C 1.328125 351.546875 1.113281 356.582031 1 360.835938 C 1.726562 356.621094 2.753906 352.714844 3.800781 349.167969 C 4.074219 348.285156 4.335938 347.421875 4.59375 346.578125 C 4.863281 345.738281 5.183594 344.9375 5.46875 344.144531 C 6.039062 342.578125 6.582031 341.09375 7.082031 339.710938 C 9.023438 334.179688 9.910156 330.183594 7.601562 327.804688 C 6.238281 334.050781 4.835938 340.292969 3.515625 346.554688 " fill-opacity="1" fill-rule="nonzero"/><path fill="#1b1918" d="M 12.554688 301.210938 C 12.28125 302.097656 11.964844 303.136719 11.617188 304.273438 C 11.269531 305.40625 10.90625 306.636719 10.628906 307.925781 C 10.035156 310.492188 9.457031 313.191406 9.074219 315.527344 C 8.3125 320.195312 8.324219 323.367188 10.457031 321.09375 L 11.367188 311.152344 C 11.53125 309.492188 11.660156 307.820312 11.851562 306.164062 L 12.554688 301.210938 " fill-opacity="1" fill-rule="nonzero"/><path fill="#1b1918" d="M 22.949219 286.832031 C 22.277344 288.125 21.824219 288.988281 21.546875 289.503906 C 21.253906 290.007812 21.097656 290.148438 21.039062 290.007812 C 20.941406 289.726562 21.214844 288.296875 21.804688 286.445312 C 22.933594 282.714844 24.816406 277.105469 25.175781 274.796875 C 20.5 284.855469 20.003906 287.34375 20.359375 288.863281 C 20.695312 290.390625 21.691406 290.925781 20.148438 297.171875 C 20.730469 295.3125 21.324219 293.511719 21.816406 291.78125 C 22.300781 290.054688 22.679688 288.386719 22.949219 286.832031 " fill-opacity="1" fill-rule="nonzero"/><path fill="#1b1918" d="M 18.675781 302.480469 C 19.351562 300.300781 19.785156 298.660156 20.148438 297.171875 C 19.613281 298.886719 19.082031 300.675781 18.675781 302.480469 " fill-opacity="1" fill-rule="nonzero"/><path fill="#ffffff" d="M 88.632812 450.246094 C 111.667969 473.277344 119.679688 505.726562 112.65625 535.308594 C 113.085938 535.574219 113.511719 535.855469 113.9375 536.128906 C 114.015625 536.179688 114.09375 536.226562 114.171875 536.28125 C 115.246094 536.96875 116.3125 537.679688 117.363281 538.417969 C 117.609375 538.59375 117.855469 538.769531 118.101562 538.941406 C 118.644531 539.335938 119.191406 539.734375 119.734375 540.136719 C 120.082031 540.398438 120.433594 540.65625 120.777344 540.921875 C 120.855469 540.980469 120.929688 541.039062 121.007812 541.09375 C 130.320312 507.46875 121.765625 469.890625 95.371094 443.5 C 74.554688 422.683594 46.753906 412.980469 19.429688 414.382812 C 19.421875 415.277344 19.394531 416.167969 19.394531 417.066406 C 19.394531 419.355469 19.441406 421.636719 19.484375 423.917969 C 44.339844 422.523438 69.675781 431.292969 88.632812 450.246094 " fill-opacity="1" fill-rule="nonzero"/><path fill="#ffffff" d="M 75.148438 463.722656 C 92.246094 480.820312 98.859375 504.496094 94.980469 526.671875 C 95.136719 526.734375 95.289062 526.800781 95.445312 526.863281 C 96.621094 527.304688 97.792969 527.773438 98.957031 528.257812 C 99.222656 528.371094 99.488281 528.476562 99.75 528.589844 C 101.101562 529.179688 102.449219 529.792969 103.78125 530.4375 C 103.835938 530.46875 103.898438 530.492188 103.953125 530.519531 C 109.1875 504.757812 101.832031 476.917969 81.894531 456.980469 C 64.871094 439.964844 42.09375 432.132812 19.761719 433.460938 C 19.894531 436.644531 20.070312 439.8125 20.277344 442.976562 C 39.992188 441.789062 60.113281 448.691406 75.148438 463.722656 " fill-opacity="1" fill-rule="nonzero"/><path fill="#ffffff" d="M 61.664062 477.203125 C 73.785156 489.320312 78.71875 505.949219 76.46875 521.75 C 76.714844 521.789062 76.957031 521.847656 77.203125 521.890625 C 78.375 522.09375 79.546875 522.316406 80.710938 522.5625 C 80.902344 522.597656 81.089844 522.632812 81.277344 522.675781 C 82.597656 522.960938 83.910156 523.277344 85.21875 523.613281 C 85.414062 523.660156 85.609375 523.703125 85.804688 523.75 C 88.699219 504.898438 82.898438 484.960938 68.402344 470.46875 C 55.414062 457.484375 38.054688 451.511719 21.019531 452.488281 C 21.304688 455.65625 21.628906 458.816406 21.992188 461.964844 C 36.277344 461.261719 50.789062 466.328125 61.664062 477.203125 " fill-opacity="1" fill-rule="nonzero"/><path fill="#ffffff" d="M 48.183594 490.683594 C 56.257812 498.753906 59.332031 509.980469 57.375 520.4375 C 57.734375 520.425781 58.089844 520.425781 58.449219 520.417969 C 58.667969 520.414062 58.890625 520.410156 59.109375 520.40625 C 61.121094 520.386719 63.136719 520.429688 65.148438 520.535156 C 65.367188 520.546875 65.582031 520.5625 65.800781 520.574219 C 66.191406 520.59375 66.589844 520.613281 66.984375 520.644531 C 68.933594 507.644531 64.902344 493.929688 54.921875 483.949219 C 46.203125 475.234375 34.648438 471.085938 23.203125 471.464844 C 23.652344 474.644531 24.132812 477.804688 24.652344 480.960938 C 33.175781 480.96875 41.695312 484.199219 48.183594 490.683594 " fill-opacity="1" fill-rule="nonzero"/><path fill="#ffffff" d="M 35.613281 523.390625 C 35.828125 523.332031 36.046875 523.289062 36.261719 523.234375 C 36.335938 523.21875 36.410156 523.199219 36.488281 523.183594 C 37.46875 522.945312 38.449219 522.726562 39.433594 522.523438 C 39.507812 522.503906 39.574219 522.492188 39.648438 522.476562 C 40.621094 522.277344 41.59375 522.09375 42.570312 521.917969 C 42.683594 521.898438 42.800781 521.878906 42.914062 521.863281 C 43.804688 521.707031 44.699219 521.566406 45.59375 521.4375 C 45.835938 521.40625 46.078125 521.371094 46.320312 521.335938 C 46.679688 521.289062 47.03125 521.234375 47.394531 521.1875 C 49.847656 513.050781 47.867188 503.851562 41.4375 497.425781 C 37.242188 493.230469 31.859375 490.941406 26.359375 490.535156 C 27 493.867188 27.679688 497.1875 28.402344 500.492188 C 30.707031 501.128906 32.886719 502.347656 34.699219 504.164062 C 39.964844 509.425781 40.273438 517.777344 35.613281 523.390625 " fill-opacity="1" fill-rule="nonzero"/><path fill="#ffffff" d="M 141.574219 562.445312 C 141.703125 562.628906 141.835938 562.808594 141.96875 562.992188 C 142.71875 564.066406 143.441406 565.148438 144.148438 566.242188 C 144.183594 566.304688 144.222656 566.367188 144.265625 566.425781 C 144.554688 566.875 144.851562 567.324219 145.128906 567.773438 C 174.710938 560.753906 207.167969 568.765625 230.203125 591.796875 C 253.246094 614.832031 261.253906 647.285156 254.234375 676.859375 C 254.664062 677.125 255.089844 677.40625 255.511719 677.679688 C 255.605469 677.742188 255.699219 677.796875 255.789062 677.855469 C 256.847656 678.539062 257.890625 679.238281 258.921875 679.960938 C 259.179688 680.136719 259.429688 680.316406 259.679688 680.5 C 260.234375 680.894531 260.789062 681.296875 261.335938 681.707031 C 261.664062 681.953125 261.996094 682.195312 262.320312 682.445312 C 262.402344 682.511719 262.492188 682.574219 262.578125 682.636719 C 271.886719 649.015625 263.335938 611.433594 236.949219 585.054688 C 210.558594 558.664062 172.96875 550.117188 139.339844 559.425781 C 139.414062 559.515625 139.480469 559.613281 139.554688 559.707031 C 139.777344 560.003906 140.003906 560.300781 140.222656 560.601562 C 140.683594 561.210938 141.132812 561.824219 141.574219 562.445312 " fill-opacity="1" fill-rule="nonzero"/><path fill="#ffffff" d="M 216.726562 605.28125 C 233.828125 622.375 240.4375 646.046875 236.558594 668.226562 C 236.644531 668.261719 236.734375 668.300781 236.824219 668.335938 C 238.144531 668.828125 239.457031 669.351562 240.757812 669.902344 C 240.910156 669.96875 241.066406 670.027344 241.21875 670.097656 C 242.664062 670.71875 244.097656 671.378906 245.519531 672.070312 C 250.761719 646.304688 243.410156 618.472656 223.472656 598.535156 C 203.527344 578.59375 175.683594 571.242188 149.917969 576.476562 C 149.957031 576.554688 149.988281 576.636719 150.027344 576.714844 C 150.652344 578.003906 151.25 579.300781 151.816406 580.613281 C 151.960938 580.945312 152.09375 581.285156 152.234375 581.617188 C 152.683594 582.683594 153.113281 583.761719 153.523438 584.839844 C 153.601562 585.046875 153.6875 585.246094 153.765625 585.453125 C 175.949219 581.574219 199.625 588.179688 216.726562 605.28125 " fill-opacity="1" fill-rule="nonzero"/><path fill="#ffffff" d="M 203.242188 618.757812 C 215.363281 630.878906 220.292969 647.507812 218.039062 663.3125 C 218.0625 663.316406 218.085938 663.320312 218.109375 663.324219 C 221.082031 663.820312 224.03125 664.445312 226.960938 665.207031 C 227.101562 665.242188 227.242188 665.269531 227.382812 665.308594 C 230.277344 646.449219 224.476562 626.511719 209.980469 612.019531 C 195.484375 597.527344 175.542969 591.726562 156.6875 594.625 C 156.742188 594.847656 156.789062 595.070312 156.84375 595.292969 C 157.167969 596.546875 157.472656 597.804688 157.746094 599.074219 C 157.8125 599.371094 157.867188 599.671875 157.929688 599.972656 C 158.144531 601.011719 158.347656 602.058594 158.527344 603.105469 C 158.574219 603.390625 158.644531 603.671875 158.691406 603.953125 C 174.492188 601.707031 191.125 606.640625 203.242188 618.757812 " fill-opacity="1" fill-rule="nonzero"/><path fill="#ffffff" d="M 189.761719 632.234375 C 197.835938 640.3125 200.894531 651.53125 198.9375 661.988281 C 199.050781 661.988281 199.167969 661.988281 199.28125 661.984375 C 199.902344 661.972656 200.519531 661.957031 201.136719 661.953125 C 201.589844 661.949219 202.046875 661.957031 202.5 661.960938 C 203.183594 661.972656 203.867188 661.980469 204.554688 662 C 205.1875 662.019531 205.820312 662.039062 206.453125 662.070312 C 206.949219 662.09375 207.445312 662.128906 207.945312 662.160156 C 208.148438 662.171875 208.355469 662.179688 208.5625 662.195312 C 210.507812 649.199219 206.480469 635.480469 196.5 625.5 C 186.519531 615.519531 172.796875 611.492188 159.800781 613.4375 C 159.832031 613.90625 159.851562 614.382812 159.878906 614.855469 C 159.882812 614.945312 159.890625 615.042969 159.894531 615.140625 C 160.007812 617.238281 160.050781 619.34375 160.027344 621.441406 C 160.027344 621.53125 160.027344 621.621094 160.023438 621.707031 C 160.019531 622.152344 160.015625 622.597656 160.003906 623.046875 C 170.460938 621.09375 181.6875 624.164062 189.761719 632.234375 " fill-opacity="1" fill-rule="nonzero"/><path fill="#ffffff" d="M 176.277344 645.714844 C 181.550781 650.988281 181.84375 659.320312 177.175781 664.941406 C 177.308594 664.910156 177.441406 664.882812 177.578125 664.847656 C 177.972656 664.75 178.371094 664.660156 178.769531 664.566406 C 179.386719 664.421875 180.007812 664.285156 180.632812 664.152344 C 181.09375 664.050781 181.550781 663.960938 182.011719 663.871094 C 182.542969 663.765625 183.074219 663.660156 183.601562 663.570312 C 184.171875 663.464844 184.742188 663.367188 185.316406 663.277344 C 185.722656 663.210938 186.128906 663.144531 186.539062 663.082031 C 187.191406 662.984375 187.851562 662.890625 188.507812 662.804688 C 188.660156 662.785156 188.8125 662.761719 188.972656 662.742188 C 191.425781 654.605469 189.4375 645.398438 183.015625 638.980469 C 176.585938 632.554688 167.386719 630.578125 159.253906 633.027344 C 159.195312 633.449219 159.132812 633.875 159.074219 634.296875 C 159.054688 634.414062 159.039062 634.535156 159.023438 634.65625 C 158.875 635.695312 158.707031 636.734375 158.53125 637.769531 C 158.519531 637.824219 158.511719 637.875 158.503906 637.925781 C 158.097656 640.230469 157.625 642.527344 157.054688 644.804688 C 162.664062 640.144531 171.015625 640.453125 176.277344 645.714844 " fill-opacity="1" fill-rule="nonzero"/><g clip-path="url(#7df702a255)"><path fill="#ffffff" d="M 378.523438 726.597656 C 352.128906 700.210938 314.539062 691.664062 280.910156 700.972656 C 280.976562 701.054688 281.035156 701.132812 281.09375 701.214844 C 281.347656 701.546875 281.597656 701.878906 281.84375 702.210938 C 282.269531 702.777344 282.6875 703.347656 283.09375 703.921875 C 283.25 704.140625 283.414062 704.363281 283.570312 704.585938 C 284.308594 705.636719 285.015625 706.703125 285.710938 707.773438 C 285.75 707.835938 285.785156 707.894531 285.824219 707.953125 C 286.117188 708.414062 286.414062 708.863281 286.699219 709.324219 C 316.28125 702.300781 348.738281 710.3125 371.777344 733.34375 C 391.542969 753.105469 400.230469 779.796875 397.871094 805.660156 C 401.050781 805.742188 404.234375 805.785156 407.429688 805.789062 C 409.8125 777.4375 400.179688 748.253906 378.523438 726.597656 " fill-opacity="1" fill-rule="nonzero"/></g><g clip-path="url(#625993b25e)"><path fill="#ffffff" d="M 365.039062 740.078125 C 345.101562 720.140625 317.257812 712.789062 291.488281 718.035156 C 291.492188 718.039062 291.492188 718.039062 291.492188 718.042969 C 292.164062 719.425781 292.804688 720.8125 293.414062 722.21875 C 293.535156 722.5 293.648438 722.785156 293.769531 723.066406 C 294.238281 724.1875 294.6875 725.3125 295.117188 726.449219 C 295.183594 726.636719 295.269531 726.8125 295.332031 726.996094 C 317.519531 723.117188 341.199219 729.726562 358.292969 746.824219 C 374.09375 762.621094 380.917969 784.035156 378.800781 804.699219 C 381.964844 804.9375 385.136719 805.136719 388.316406 805.296875 C 390.601562 781.992188 382.851562 757.890625 365.039062 740.078125 " fill-opacity="1" fill-rule="nonzero"/></g><path fill="#ffffff" d="M 351.550781 753.570312 C 337.058594 739.074219 317.113281 733.269531 298.25 736.179688 C 298.277344 736.289062 298.300781 736.40625 298.328125 736.523438 C 298.695312 737.914062 299.03125 739.304688 299.335938 740.707031 C 299.371094 740.863281 299.398438 741.023438 299.433594 741.179688 C 299.703125 742.46875 299.945312 743.757812 300.164062 745.054688 C 300.191406 745.203125 300.230469 745.355469 300.253906 745.507812 C 316.054688 743.246094 332.691406 748.1875 344.816406 760.300781 C 356.410156 771.898438 361.414062 787.628906 359.84375 802.808594 C 362.980469 803.199219 366.125 803.550781 369.285156 803.863281 C 371.167969 785.90625 365.28125 767.296875 351.550781 753.570312 " fill-opacity="1" fill-rule="nonzero"/><path fill="#ffffff" d="M 338.070312 767.046875 C 328.085938 757.066406 314.367188 753.035156 301.367188 754.984375 C 301.402344 755.449219 301.421875 755.914062 301.449219 756.375 C 301.453125 756.484375 301.460938 756.589844 301.46875 756.695312 C 301.578125 758.792969 301.625 760.886719 301.601562 762.980469 C 301.597656 763.074219 301.597656 763.171875 301.597656 763.265625 C 301.589844 763.707031 301.585938 764.152344 301.574219 764.59375 C 312.03125 762.636719 323.257812 765.710938 331.332031 773.78125 C 338.503906 780.949219 341.714844 790.601562 340.980469 799.996094 C 344.109375 800.539062 347.25 801.046875 350.402344 801.515625 C 351.597656 789.195312 347.484375 776.460938 338.070312 767.046875 " fill-opacity="1" fill-rule="nonzero"/><path fill="#ffffff" d="M 324.585938 780.523438 C 318.164062 774.105469 308.960938 772.121094 300.824219 774.574219 C 300.769531 774.972656 300.707031 775.371094 300.65625 775.769531 C 300.628906 775.941406 300.605469 776.117188 300.582031 776.285156 C 300.445312 777.242188 300.292969 778.199219 300.128906 779.152344 C 300.121094 779.207031 300.113281 779.261719 300.101562 779.316406 C 299.835938 780.855469 299.523438 782.390625 299.183594 783.917969 C 299.15625 784.039062 299.125 784.164062 299.097656 784.285156 C 298.945312 784.980469 298.796875 785.675781 298.621094 786.367188 C 304.238281 781.695312 312.574219 781.988281 317.847656 787.261719 C 320.34375 789.757812 321.714844 792.9375 321.980469 796.1875 C 325.152344 796.90625 328.335938 797.585938 331.535156 798.226562 C 331.761719 791.84375 329.449219 785.386719 324.585938 780.523438 " fill-opacity="1" fill-rule="nonzero"/><path fill="#ffffff" d="M 124.019531 556.40625 C 147.054688 579.4375 155.066406 611.886719 148.046875 641.46875 C 148.230469 641.585938 148.417969 641.707031 148.609375 641.824219 C 151.269531 643.496094 153.871094 645.296875 156.398438 647.242188 C 157.25 644.164062 157.949219 641.058594 158.503906 637.925781 C 158.511719 637.875 158.519531 637.824219 158.53125 637.769531 C 158.710938 636.734375 158.875 635.695312 159.023438 634.65625 C 159.039062 634.535156 159.054688 634.414062 159.074219 634.296875 C 159.65625 630.121094 159.972656 625.917969 160.023438 621.707031 C 160.027344 621.621094 160.027344 621.53125 160.027344 621.441406 C 160.050781 619.339844 160.007812 617.234375 159.894531 615.140625 C 159.890625 615.042969 159.882812 614.945312 159.878906 614.855469 C 159.664062 610.921875 159.207031 606.992188 158.527344 603.105469 C 158.347656 602.058594 158.144531 601.011719 157.929688 599.972656 C 157.867188 599.671875 157.8125 599.371094 157.746094 599.074219 C 157.472656 597.804688 157.167969 596.546875 156.84375 595.292969 C 155.9375 591.761719 154.824219 588.273438 153.523438 584.839844 C 153.113281 583.761719 152.683594 582.683594 152.234375 581.617188 C 152.09375 581.285156 151.960938 580.945312 151.816406 580.613281 C 151.25 579.300781 150.652344 578.003906 150.027344 576.714844 C 148.324219 573.199219 146.402344 569.761719 144.265625 566.425781 C 144.222656 566.367188 144.183594 566.304688 144.148438 566.242188 C 143.441406 565.148438 142.71875 564.066406 141.96875 562.992188 C 141.835938 562.808594 141.703125 562.628906 141.574219 562.445312 C 141.132812 561.824219 140.683594 561.210938 140.222656 560.601562 C 140.003906 560.300781 139.777344 560.003906 139.554688 559.707031 C 136.882812 556.210938 133.957031 552.851562 130.765625 549.660156 C 127.589844 546.488281 124.25 543.578125 120.777344 540.921875 C 120.433594 540.65625 120.082031 540.398438 119.734375 540.136719 C 119.191406 539.734375 118.644531 539.335938 118.101562 538.941406 C 117.855469 538.769531 117.609375 538.59375 117.363281 538.417969 C 116.3125 537.679688 115.246094 536.96875 114.171875 536.28125 C 114.09375 536.226562 114.015625 536.179688 113.9375 536.128906 C 110.644531 534.019531 107.25 532.125 103.78125 530.4375 C 102.449219 529.792969 101.101562 529.179688 99.75 528.589844 C 99.488281 528.476562 99.222656 528.371094 98.957031 528.257812 C 97.792969 527.773438 96.621094 527.304688 95.445312 526.863281 C 92.085938 525.59375 88.671875 524.507812 85.21875 523.613281 C 83.910156 523.277344 82.597656 522.960938 81.277344 522.675781 C 81.089844 522.632812 80.902344 522.597656 80.710938 522.5625 C 79.546875 522.316406 78.375 522.09375 77.203125 521.890625 C 73.425781 521.238281 69.617188 520.792969 65.800781 520.574219 C 65.582031 520.5625 65.367188 520.546875 65.148438 520.535156 C 63.136719 520.433594 61.125 520.390625 59.109375 520.40625 C 58.890625 520.410156 58.667969 520.414062 58.449219 520.417969 C 54.394531 520.480469 50.34375 520.789062 46.320312 521.335938 C 46.078125 521.371094 45.835938 521.40625 45.59375 521.4375 C 44.699219 521.566406 43.804688 521.707031 42.914062 521.863281 C 42.800781 521.878906 42.683594 521.898438 42.570312 521.917969 C 41.59375 522.09375 40.621094 522.277344 39.648438 522.476562 C 39.574219 522.492188 39.507812 522.503906 39.433594 522.523438 C 38.449219 522.726562 37.46875 522.945312 36.488281 523.183594 C 36.410156 523.199219 36.335938 523.21875 36.261719 523.234375 C 35.582031 523.402344 34.90625 523.585938 34.226562 523.761719 C 34.5 524.714844 34.796875 525.65625 35.074219 526.605469 C 36.4375 528.496094 37.757812 530.410156 38.972656 532.378906 C 68.546875 525.367188 100.992188 533.382812 124.019531 556.40625 " fill-opacity="1" fill-rule="nonzero"/><path fill="#ffffff" d="M 117.28125 563.140625 C 97.351562 543.21875 69.539062 535.863281 43.785156 541.085938 C 45.21875 544.019531 46.496094 547.011719 47.625 550.050781 C 69.796875 546.1875 93.449219 552.800781 110.535156 569.882812 C 127.636719 586.980469 134.246094 610.65625 130.367188 632.832031 C 130.617188 632.925781 130.855469 633.03125 131.101562 633.125 C 132.140625 633.519531 133.175781 633.933594 134.210938 634.367188 C 134.539062 634.503906 134.871094 634.640625 135.207031 634.78125 C 136.5625 635.367188 137.910156 635.988281 139.25 636.632812 C 139.28125 636.648438 139.3125 636.667969 139.34375 636.679688 C 144.578125 610.917969 137.222656 583.078125 117.28125 563.140625 " fill-opacity="1" fill-rule="nonzero"/><path fill="#ffffff" d="M 103.792969 576.628906 C 89.308594 562.144531 69.390625 556.34375 50.546875 559.222656 C 51.363281 562.3125 52.035156 565.425781 52.554688 568.5625 C 68.34375 566.328125 84.949219 571.261719 97.054688 583.363281 C 109.171875 595.480469 114.105469 612.109375 111.859375 627.910156 C 112.394531 628 112.929688 628.113281 113.460938 628.214844 C 113.785156 628.277344 114.105469 628.335938 114.425781 628.398438 C 116.097656 628.722656 117.757812 629.085938 119.414062 629.488281 C 119.679688 629.550781 119.941406 629.609375 120.203125 629.675781 C 120.53125 629.761719 120.863281 629.824219 121.191406 629.910156 C 124.089844 611.058594 118.289062 591.121094 103.792969 576.628906 " fill-opacity="1" fill-rule="nonzero"/><path fill="#ffffff" d="M 83.570312 596.84375 C 91.648438 604.914062 94.71875 616.140625 92.761719 626.597656 C 95.964844 626.5 99.175781 626.578125 102.375 626.800781 C 104.324219 613.804688 100.292969 600.089844 90.308594 590.109375 C 80.472656 580.273438 67.007812 576.230469 54.175781 577.976562 C 55.582031 581.054688 57.027344 584.109375 58.503906 587.144531 C 67.535156 586.746094 76.699219 589.96875 83.570312 596.84375 " fill-opacity="1" fill-rule="nonzero"/><path fill="#ffffff" d="M 76.824219 603.585938 C 73.0625 599.824219 68.335938 597.597656 63.429688 596.882812 C 68.925781 607.394531 74.882812 617.632812 81.285156 627.558594 C 81.785156 627.488281 82.28125 627.410156 82.78125 627.347656 C 85.234375 619.210938 83.253906 610.011719 76.824219 603.585938 " fill-opacity="1" fill-rule="nonzero"/><path fill="#ffffff" d="M 259.679688 680.5 C 259.429688 680.316406 259.179688 680.136719 258.921875 679.960938 C 257.890625 679.238281 256.847656 678.539062 255.789062 677.855469 C 255.699219 677.796875 255.605469 677.742188 255.511719 677.679688 C 252.269531 675.605469 248.933594 673.734375 245.519531 672.070312 C 245.519531 672.070312 245.515625 672.070312 245.515625 672.070312 C 244.097656 671.378906 242.664062 670.71875 241.21875 670.097656 C 241.066406 670.027344 240.910156 669.96875 240.757812 669.902344 C 239.457031 669.351562 238.144531 668.828125 236.824219 668.335938 C 233.582031 667.117188 230.289062 666.074219 226.960938 665.207031 C 224.03125 664.453125 221.085938 663.8125 218.109375 663.324219 C 214.742188 662.761719 211.34375 662.371094 207.945312 662.160156 C 207.445312 662.128906 206.949219 662.09375 206.453125 662.070312 C 205.820312 662.039062 205.1875 662.019531 204.554688 662 C 203.867188 661.980469 203.183594 661.972656 202.5 661.960938 C 202.046875 661.957031 201.589844 661.949219 201.136719 661.953125 C 200.519531 661.957031 199.902344 661.972656 199.28125 661.984375 C 195.679688 662.0625 192.085938 662.339844 188.507812 662.804688 C 187.851562 662.890625 187.191406 662.984375 186.539062 663.082031 C 186.128906 663.144531 185.722656 663.210938 185.316406 663.277344 C 184.742188 663.367188 184.171875 663.464844 183.601562 663.570312 C 183.074219 663.660156 182.542969 663.765625 182.011719 663.871094 C 181.550781 663.960938 181.09375 664.050781 180.632812 664.152344 C 180.007812 664.285156 179.386719 664.421875 178.769531 664.566406 C 178.371094 664.660156 177.972656 664.75 177.578125 664.847656 C 176.636719 665.078125 175.699219 665.320312 174.765625 665.574219 C 176.847656 668.28125 178.78125 671.066406 180.550781 673.925781 C 210.125 666.921875 242.566406 674.933594 265.597656 697.957031 C 288.632812 720.992188 296.644531 753.445312 289.625 783.019531 C 292.480469 784.789062 295.265625 786.707031 297.96875 788.785156 C 298.382812 787.292969 298.753906 785.796875 299.097656 784.285156 C 299.125 784.164062 299.15625 784.039062 299.183594 783.917969 C 299.523438 782.390625 299.832031 780.855469 300.101562 779.316406 C 300.113281 779.261719 300.121094 779.207031 300.128906 779.152344 C 300.292969 778.199219 300.445312 777.242188 300.582031 776.285156 C 300.605469 776.117188 300.628906 775.941406 300.65625 775.769531 C 301.230469 771.625 301.542969 767.449219 301.597656 763.265625 C 301.597656 763.171875 301.597656 763.074219 301.601562 762.980469 C 301.621094 760.882812 301.578125 758.789062 301.46875 756.695312 C 301.460938 756.589844 301.453125 756.484375 301.449219 756.375 C 301.238281 752.585938 300.804688 748.804688 300.164062 745.054688 C 299.945312 743.757812 299.703125 742.46875 299.433594 741.179688 C 299.398438 741.023438 299.371094 740.863281 299.335938 740.707031 C 299.03125 739.304688 298.695312 737.914062 298.328125 736.523438 C 297.441406 733.117188 296.371094 729.757812 295.117188 726.449219 C 294.6875 725.3125 294.238281 724.1875 293.769531 723.066406 C 293.648438 722.785156 293.535156 722.5 293.414062 722.21875 C 292.804688 720.8125 292.164062 719.425781 291.492188 718.042969 C 289.808594 714.597656 287.921875 711.226562 285.824219 707.953125 C 285.785156 707.894531 285.75 707.835938 285.710938 707.773438 C 285.019531 706.703125 284.304688 705.636719 283.570312 704.585938 C 283.414062 704.363281 283.25 704.140625 283.09375 703.921875 C 282.6875 703.347656 282.269531 702.777344 281.84375 702.210938 C 281.597656 701.878906 281.347656 701.546875 281.09375 701.214844 C 278.433594 697.738281 275.523438 694.394531 272.34375 691.214844 C 269.152344 688.03125 265.804688 685.109375 262.320312 682.445312 C 261.996094 682.195312 261.664062 681.953125 261.335938 681.707031 C 260.789062 681.296875 260.234375 680.894531 259.679688 680.5 " fill-opacity="1" fill-rule="nonzero"/><path fill="#ffffff" d="M 258.859375 704.695312 C 238.929688 684.765625 211.109375 677.410156 185.351562 682.625 C 186.785156 685.566406 188.070312 688.5625 189.199219 691.601562 C 211.367188 687.742188 235.027344 694.351562 252.113281 711.441406 C 269.214844 728.535156 275.824219 752.207031 271.945312 774.386719 C 272.105469 774.445312 272.265625 774.519531 272.425781 774.578125 C 273.648438 775.035156 274.859375 775.519531 276.066406 776.03125 C 276.261719 776.113281 276.453125 776.1875 276.640625 776.273438 C 278.074219 776.886719 279.496094 777.539062 280.90625 778.222656 C 286.15625 752.464844 278.796875 724.628906 258.859375 704.695312 " fill-opacity="1" fill-rule="nonzero"/><path fill="#ffffff" d="M 245.371094 718.179688 C 230.886719 703.699219 210.964844 697.898438 192.117188 700.777344 C 192.9375 703.859375 193.605469 706.976562 194.125 710.109375 C 209.910156 707.878906 226.523438 712.808594 238.632812 724.917969 C 250.75 737.035156 255.6875 753.664062 253.429688 769.472656 C 253.757812 769.527344 254.085938 769.601562 254.417969 769.660156 C 255.253906 769.804688 256.082031 769.964844 256.914062 770.128906 C 257.453125 770.238281 257.992188 770.339844 258.523438 770.453125 C 259.675781 770.707031 260.828125 770.980469 261.972656 771.273438 C 262.238281 771.34375 262.503906 771.394531 262.769531 771.464844 C 265.667969 752.609375 259.867188 732.671875 245.371094 718.179688 " fill-opacity="1" fill-rule="nonzero"/><path fill="#ffffff" d="M 231.886719 731.660156 C 221.917969 721.691406 208.226562 717.664062 195.238281 719.589844 C 195.464844 722.789062 195.535156 725.996094 195.453125 729.195312 C 205.890625 727.265625 217.089844 730.335938 225.148438 738.394531 C 232.429688 745.671875 235.613281 755.507812 234.746094 765.035156 C 236.910156 766.117188 239.085938 767.191406 241.273438 768.230469 C 242.167969 768.269531 243.0625 768.292969 243.953125 768.355469 C 245.902344 755.355469 241.871094 741.640625 231.886719 731.660156 " fill-opacity="1" fill-rule="nonzero"/><path fill="#ffffff" d="M 194.699219 739.171875 C 194.59375 740.027344 194.46875 740.878906 194.339844 741.730469 C 197.53125 743.835938 200.757812 745.898438 204.011719 747.914062 C 206.816406 748.398438 209.503906 749.710938 211.667969 751.875 C 212.09375 752.300781 212.472656 752.75 212.835938 753.210938 C 216.9375 755.601562 221.09375 757.917969 225.292969 760.160156 C 224.871094 754.679688 222.585938 749.316406 218.40625 745.136719 C 211.996094 738.726562 202.824219 736.746094 194.699219 739.171875 " fill-opacity="1" fill-rule="nonzero"/><path fill="#ffffff" d="M 52.492188 568.570312 C 51.980469 565.425781 51.304688 562.320312 50.496094 559.230469 C 50.511719 559.226562 50.527344 559.226562 50.546875 559.222656 C 49.722656 556.128906 48.75 553.070312 47.625 550.050781 C 47.609375 550.050781 47.59375 550.054688 47.578125 550.058594 C 46.453125 547.015625 45.167969 544.023438 43.730469 541.097656 C 43.746094 541.09375 43.761719 541.089844 43.785156 541.085938 C 42.332031 538.121094 40.730469 535.214844 38.972656 532.378906 C 38.960938 532.378906 38.949219 532.382812 38.941406 532.382812 C 37.746094 530.445312 36.445312 528.554688 35.097656 526.6875 C 40.128906 543.832031 46.289062 560.492188 53.53125 576.5625 C 53.304688 573.890625 52.996094 571.21875 52.554688 568.5625 C 52.53125 568.566406 52.511719 568.570312 52.492188 568.570312 " fill-opacity="1" fill-rule="nonzero"/><path fill="#ffffff" d="M 194.699219 739.171875 C 195.113281 735.859375 195.367188 732.53125 195.453125 729.195312 C 195.433594 729.199219 195.410156 729.203125 195.390625 729.207031 C 195.488281 726.007812 195.40625 722.796875 195.1875 719.597656 C 195.207031 719.59375 195.222656 719.59375 195.238281 719.589844 C 195.019531 716.417969 194.648438 713.253906 194.125 710.109375 C 194.109375 710.109375 194.09375 710.113281 194.078125 710.113281 C 193.554688 706.984375 192.882812 703.871094 192.074219 700.785156 C 192.089844 700.78125 192.101562 700.78125 192.117188 700.777344 C 191.296875 697.683594 190.324219 694.621094 189.199219 691.601562 C 189.183594 691.605469 189.171875 691.605469 189.15625 691.609375 C 188.03125 688.570312 186.746094 685.578125 185.308594 682.632812 C 185.320312 682.628906 185.335938 682.628906 185.351562 682.625 C 183.90625 679.664062 182.304688 676.761719 180.550781 673.925781 C 180.539062 673.929688 180.527344 673.933594 180.519531 673.933594 C 178.75 671.074219 176.820312 668.289062 174.734375 665.585938 C 174.742188 665.578125 174.753906 665.578125 174.765625 665.574219 C 172.164062 662.203125 169.324219 658.953125 166.230469 655.859375 C 163.105469 652.734375 159.816406 649.867188 156.398438 647.242188 C 156.398438 647.246094 156.398438 647.25 156.398438 647.253906 C 153.867188 645.300781 151.265625 643.496094 148.609375 641.824219 C 145.566406 639.917969 142.441406 638.183594 139.25 636.632812 C 137.910156 635.988281 136.5625 635.367188 135.207031 634.78125 C 134.871094 634.640625 134.539062 634.503906 134.210938 634.367188 C 133.175781 633.933594 132.140625 633.519531 131.101562 633.125 C 127.523438 631.769531 123.890625 630.609375 120.203125 629.675781 C 119.941406 629.609375 119.679688 629.550781 119.414062 629.488281 C 117.757812 629.085938 116.097656 628.722656 114.425781 628.398438 C 114.105469 628.335938 113.785156 628.277344 113.460938 628.214844 C 102.84375 626.289062 91.980469 626.085938 81.316406 627.597656 C 83.25 630.597656 85.234375 633.558594 87.246094 636.5 C 113.089844 634.171875 139.746094 642.863281 159.484375 662.605469 C 179.457031 682.570312 188.128906 709.617188 185.507812 735.730469 C 188.410156 737.757812 191.335938 739.746094 194.292969 741.699219 C 194.414062 740.863281 194.535156 740.027344 194.640625 739.1875 C 194.660156 739.179688 194.679688 739.175781 194.699219 739.171875 " fill-opacity="1" fill-rule="nonzero"/><path fill="#ffffff" d="M 152.75 669.339844 C 136.519531 653.109375 115.050781 645.222656 93.730469 645.667969 C 96.128906 648.960938 98.570312 652.214844 101.0625 655.425781 C 117.457031 656.703125 133.496094 663.574219 146.007812 676.082031 C 158.703125 688.777344 165.605469 705.101562 166.734375 721.742188 C 169.914062 724.261719 173.128906 726.742188 176.386719 729.167969 C 177.066406 707.582031 169.191406 685.777344 152.75 669.339844 " fill-opacity="1" fill-rule="nonzero"/><path fill="#ffffff" d="M 109.953125 666.433594 C 114.769531 672.183594 119.746094 677.792969 124.882812 683.257812 C 127.574219 685.082031 130.140625 687.179688 132.523438 689.5625 C 135.039062 692.082031 137.230469 694.796875 139.125 697.652344 C 144.53125 702.835938 150.089844 707.859375 155.789062 712.722656 C 153.277344 701.761719 147.785156 691.351562 139.261719 682.828125 C 130.890625 674.457031 120.699219 669.003906 109.953125 666.433594 " fill-opacity="1" fill-rule="nonzero"/><path fill="#ffffff" d="M 297.96875 788.800781 C 295.265625 786.71875 292.480469 784.789062 289.625 783.019531 C 286.785156 781.265625 283.875 779.667969 280.90625 778.222656 C 280.90625 778.226562 280.90625 778.230469 280.90625 778.234375 C 279.5 777.539062 278.074219 776.890625 276.640625 776.273438 C 276.453125 776.1875 276.261719 776.113281 276.066406 776.03125 C 274.859375 775.519531 273.648438 775.035156 272.425781 774.578125 C 268.992188 773.285156 265.503906 772.175781 261.972656 771.273438 C 260.828125 770.980469 259.675781 770.707031 258.523438 770.453125 C 257.992188 770.339844 257.453125 770.238281 256.914062 770.128906 C 256.082031 769.964844 255.253906 769.804688 254.417969 769.660156 C 250.078125 768.898438 245.691406 768.429688 241.304688 768.242188 C 260.167969 777.222656 279.871094 784.726562 300.269531 790.609375 C 299.507812 789.992188 298.742188 789.378906 297.96875 788.785156 C 297.96875 788.789062 297.96875 788.792969 297.96875 788.800781 " fill-opacity="1" fill-rule="nonzero"/><path fill="#ffffff" d="M 486.902344 572.875 C 595.738281 542.515625 622.347656 441.597656 587.820312 344.675781 C 601.015625 340.019531 626.316406 335.546875 627.0625 327.015625 C 628.566406 309.898438 579.707031 307.6875 571.695312 307.445312 C 529.257812 221.734375 497.3125 227.28125 486.246094 237.132812 C 475.328125 246.851562 472.769531 292.476562 489.289062 336.378906 L 489 336.890625 C 489 336.890625 459.441406 386.929688 476.195312 395.28125 C 482.601562 398.476562 495.554688 385.566406 505.984375 376.09375 C 540.667969 463.472656 539.59375 520.21875 471.054688 559.171875 C 449.625 571.355469 424.203125 551.136719 412.628906 556.921875 C 418.257812 561.746094 420.589844 572.511719 427.335938 574.277344 C 413.835938 579.582031 417.921875 598.105469 410.222656 601.277344 C 438.171875 607.261719 435.773438 587.132812 486.902344 572.875 " fill-opacity="1" fill-rule="nonzero"/><path fill="#d5222e" d="M 496.371094 562.707031 C 503.140625 560.773438 506.363281 564.492188 512.695312 560.03125 C 519.027344 555.566406 531.3125 560.011719 531.3125 549.773438 C 531.3125 539.535156 540.359375 543.726562 529.574219 532.6875 C 521.4375 524.355469 504.351562 528.828125 505.691406 536.351562 C 507.035156 543.878906 491.15625 542.121094 489.886719 551.203125 C 488.652344 559.972656 492.996094 563.671875 496.371094 562.707031 " fill-opacity="1" fill-rule="nonzero"/><path fill="#1b1918" d="M 530.859375 404.03125 C 541.441406 400.234375 552.636719 378.960938 544.925781 376.070312 C 535.460938 372.523438 542.554688 356.964844 533.617188 351.023438 C 521.8125 343.179688 513.410156 343.835938 506.347656 347.382812 C 496.847656 352.152344 513.871094 361.449219 514.65625 370.765625 C 515.078125 375.769531 512.292969 380.347656 514.183594 384.710938 C 519.421875 396.785156 527.890625 405.097656 530.859375 404.03125 " fill-opacity="1" fill-rule="nonzero"/><path fill="#1b1918" d="M 541.8125 536.90625 C 544.304688 540.042969 550.132812 538.199219 552.003906 533.292969 C 553.34375 529.773438 563.152344 526.78125 564.835938 521.097656 C 565.933594 517.410156 567.539062 513.003906 565.585938 508.984375 C 563.335938 504.363281 558.492188 500.449219 556.039062 500.628906 C 546.03125 501.351562 553.945312 511.335938 545.429688 514.730469 C 542.710938 515.8125 544.640625 524.371094 542.535156 526.179688 C 538.199219 529.917969 537.109375 530.992188 541.8125 536.90625 " fill-opacity="1" fill-rule="nonzero"/><path fill="#1b1918" d="M 584.851562 416.019531 C 586.878906 414.003906 593.824219 412.855469 595.378906 406.835938 C 597.015625 400.472656 593.035156 389.214844 586.617188 386.933594 C 577.191406 383.585938 574.964844 393.667969 568.214844 393.84375 C 562.027344 394.003906 560.402344 405.5625 563.230469 413.152344 C 565.960938 420.492188 582.769531 418.089844 584.851562 416.019531 " fill-opacity="1" fill-rule="nonzero"/><path fill="#d5222e" d="M 577.539062 475.929688 C 569.054688 477.757812 563.957031 490.558594 552.222656 491.359375 C 535.308594 492.515625 538.234375 472.042969 533.015625 463.007812 C 525.296875 449.648438 534.300781 439.066406 541.050781 438.101562 C 547.332031 437.203125 553.84375 437.230469 558.894531 437.363281 C 563.621094 437.488281 565.484375 428.527344 566.125 425.3125 C 566.480469 423.535156 569.179688 417.984375 573.964844 414.929688 C 577.84375 412.453125 583.097656 411.617188 589.59375 415.769531 C 601.335938 423.285156 601.667969 436.921875 600.855469 443.378906 C 600.042969 449.84375 587.984375 473.683594 577.539062 475.929688 " fill-opacity="1" fill-rule="nonzero"/><path fill="#d5222e" d="M 507.9375 244.472656 C 515.976562 247.367188 513.578125 257.152344 524.816406 263.808594 C 536.0625 270.464844 544.601562 265.351562 547.160156 271.519531 C 549.71875 277.691406 536.410156 288.296875 546.03125 297.878906 C 555.660156 307.457031 561.257812 308.550781 563.917969 312.882812 C 566.578125 317.214844 574.511719 335.078125 572.644531 342.507812 C 570.777344 349.9375 564.230469 363.136719 553.847656 367.074219 C 543.464844 371.015625 531.15625 382.382812 526.316406 365.535156 C 521.484375 348.691406 510.960938 355.09375 507.460938 354.765625 C 503.960938 354.433594 493.5625 350.8125 491.675781 332.621094 C 489.789062 314.433594 489.636719 309.34375 484.679688 298.046875 C 479.722656 286.75 486.417969 276.585938 486.554688 264.527344 C 486.644531 256.097656 493.832031 239.394531 507.9375 244.472656 " fill-opacity="1" fill-rule="nonzero"/><path fill="#ffffff" d="M 329.496094 261.25 C 220.660156 291.609375 194.050781 392.53125 228.578125 489.453125 C 215.382812 494.109375 190.082031 498.578125 189.335938 507.113281 C 187.835938 524.226562 236.695312 526.441406 244.703125 526.683594 C 287.144531 612.394531 319.089844 606.847656 330.15625 596.996094 C 341.074219 587.273438 343.628906 541.648438 327.113281 497.746094 L 327.402344 497.238281 C 327.402344 497.238281 356.957031 447.199219 340.207031 438.847656 C 333.796875 435.652344 320.84375 448.5625 310.414062 458.035156 C 275.730469 370.65625 276.808594 313.910156 345.34375 274.953125 C 366.773438 262.773438 392.195312 282.992188 403.769531 277.207031 C 398.144531 272.382812 395.808594 261.617188 389.0625 259.851562 C 402.5625 254.546875 398.480469 236.023438 406.179688 232.851562 C 378.226562 226.863281 380.625 246.992188 329.496094 261.25 " fill-opacity="1" fill-rule="nonzero"/><path fill="#d5222e" d="M 320.027344 271.421875 C 313.257812 273.355469 310.039062 269.636719 303.707031 274.097656 C 297.375 278.558594 285.089844 274.117188 285.089844 284.355469 C 285.089844 294.59375 276.039062 290.402344 286.824219 301.441406 C 294.960938 309.769531 312.050781 305.300781 310.707031 297.773438 C 309.363281 290.246094 325.246094 292.003906 326.511719 282.925781 C 327.746094 274.152344 323.40625 270.453125 320.027344 271.421875 " fill-opacity="1" fill-rule="nonzero"/><path fill="#1b1918" d="M 285.539062 430.097656 C 274.960938 433.894531 263.761719 455.167969 271.476562 458.058594 C 280.9375 461.605469 273.84375 477.160156 282.78125 483.105469 C 294.585938 490.949219 302.992188 490.289062 310.050781 486.746094 C 319.550781 481.976562 302.53125 472.675781 301.742188 463.363281 C 301.320312 458.359375 304.109375 453.78125 302.214844 449.417969 C 296.976562 437.339844 288.507812 429.03125 285.539062 430.097656 " fill-opacity="1" fill-rule="nonzero"/><path fill="#1b1918" d="M 274.585938 297.222656 C 272.09375 294.085938 266.265625 295.929688 264.394531 300.835938 C 263.054688 304.355469 253.25 307.34375 251.5625 313.03125 C 250.464844 316.714844 248.859375 321.121094 250.816406 325.140625 C 253.058594 329.761719 257.90625 333.675781 260.359375 333.5 C 270.367188 332.777344 262.453125 322.792969 270.96875 319.394531 C 273.6875 318.316406 271.761719 309.757812 273.863281 307.949219 C 278.199219 304.210938 279.289062 303.132812 274.585938 297.222656 " fill-opacity="1" fill-rule="nonzero"/><path fill="#1b1918" d="M 231.550781 418.109375 C 229.523438 420.121094 222.574219 421.273438 221.023438 427.292969 C 219.382812 433.65625 223.363281 444.910156 229.78125 447.195312 C 239.207031 450.542969 241.4375 440.457031 248.1875 440.285156 C 254.375 440.121094 255.996094 428.566406 253.167969 420.972656 C 250.4375 413.636719 233.628906 416.039062 231.550781 418.109375 " fill-opacity="1" fill-rule="nonzero"/><path fill="#d5222e" d="M 238.863281 358.199219 C 247.347656 356.371094 252.445312 343.570312 264.179688 342.769531 C 281.089844 341.613281 278.164062 362.085938 283.382812 371.121094 C 291.101562 384.480469 282.097656 395.0625 275.347656 396.027344 C 269.070312 396.921875 262.554688 396.898438 257.503906 396.765625 C 252.777344 396.640625 250.917969 405.601562 250.273438 408.8125 C 249.921875 410.59375 247.222656 416.144531 242.4375 419.199219 C 238.550781 421.675781 233.300781 422.511719 226.808594 418.355469 C 215.0625 410.847656 214.734375 397.207031 215.542969 390.746094 C 216.355469 384.285156 228.414062 360.445312 238.863281 358.199219 " fill-opacity="1" fill-rule="nonzero"/><path fill="#d5222e" d="M 308.460938 589.652344 C 300.421875 586.761719 302.824219 576.976562 291.578125 570.320312 C 280.335938 563.664062 271.800781 568.777344 269.238281 562.605469 C 266.679688 556.433594 279.992188 545.832031 270.367188 536.25 C 260.738281 526.671875 255.140625 525.578125 252.480469 521.246094 C 249.820312 516.910156 241.890625 499.046875 243.757812 491.621094 C 245.625 484.191406 252.167969 470.992188 262.550781 467.050781 C 272.9375 463.113281 285.242188 451.746094 290.082031 468.589844 C 294.917969 485.433594 305.441406 479.035156 308.9375 479.363281 C 312.433594 479.691406 322.835938 483.320312 324.722656 501.503906 C 326.609375 519.691406 326.765625 524.785156 331.722656 536.082031 C 336.675781 547.378906 329.984375 557.539062 329.847656 569.601562 C 329.753906 578.03125 322.566406 594.734375 308.460938 589.652344 " fill-opacity="1" fill-rule="nonzero"/><g clip-path="url(#60876c821e)"><path fill="#ffffff" d="M 795.984375 223.167969 C 782.332031 212.882812 765.53125 218.5625 758.90625 221.5 C 757.128906 214.433594 751.277344 197.410156 735.214844 191.59375 C 722.910156 187.140625 712.609375 187.019531 704.597656 191.242188 C 703.476562 191.835938 702.457031 192.488281 701.519531 193.179688 C 696.113281 186.59375 682.691406 173.582031 661.421875 174.097656 C 644.1875 174.523438 631.824219 182.429688 626.21875 196.464844 C 620.863281 194.980469 607.167969 191.910156 599.09375 196.609375 C 595.863281 198.492188 593.84375 201.347656 593.097656 205.109375 L 592.417969 208.527344 L 595.847656 207.917969 C 599.675781 207.238281 603.265625 208.574219 605.449219 211.496094 C 607.089844 213.695312 607.496094 216.285156 606.507812 218.261719 C 605.1875 220.914062 601.554688 222.371094 596.269531 222.394531 C 589.304688 222.414062 582.1875 219.125 577.234375 213.601562 C 572.667969 208.511719 570.445312 202.066406 571.136719 195.917969 C 572.699219 182.042969 585.253906 172.023438 599.132812 173.578125 C 603.5 174.070312 607.695312 175.714844 611.261719 178.332031 L 615.984375 181.800781 L 614.945312 175.578125 C 614.867188 175.160156 614.792969 174.738281 614.761719 174.308594 C 613.480469 156.167969 624.683594 143.152344 645.5 138.605469 C 665.550781 134.21875 686.113281 146.257812 695.042969 155.417969 L 697.019531 157.445312 L 698.675781 155.148438 C 705.867188 145.191406 720.417969 140.179688 735.8125 141.59375 C 756.34375 143.484375 766.398438 166.585938 769.964844 173.625 C 770.535156 174.753906 771.902344 175.230469 773.058594 174.714844 C 774.300781 174.160156 774.835938 172.691406 774.226562 171.476562 C 770.375 163.777344 759.464844 139.019531 734.609375 136.699219 C 718.636719 135.210938 705.117188 140.277344 696.511719 150.226562 C 687.054688 141.59375 666.492188 129.148438 644.484375 133.953125 C 636.90625 135.609375 630.425781 138.371094 625.191406 142.054688 C 619.390625 134.839844 604.175781 119.546875 579.753906 120.132812 C 560.386719 120.625 546.40625 129.566406 540.175781 145.460938 C 534.363281 143.828125 518.660156 140.191406 509.503906 145.519531 C 505.9375 147.597656 503.707031 150.757812 502.878906 154.914062 L 502.203125 158.332031 L 505.628906 157.722656 C 510.066406 156.933594 514.234375 158.488281 516.773438 161.882812 C 518.699219 164.457031 519.167969 167.507812 518 169.851562 C 516.453125 172.949219 512.257812 174.667969 506.160156 174.683594 C 498.207031 174.703125 490.082031 170.953125 484.425781 164.652344 C 479.21875 158.835938 476.679688 151.472656 477.472656 144.4375 C 478.335938 136.761719 482.132812 129.882812 488.167969 125.066406 C 494.203125 120.253906 501.75 118.074219 509.429688 118.9375 C 514.417969 119.496094 519.207031 121.371094 523.277344 124.363281 L 528.015625 127.839844 L 526.953125 121.574219 C 526.859375 121.046875 526.773438 120.554688 526.734375 120.09375 C 525.277344 99.429688 538.023438 84.609375 561.695312 79.441406 C 584.457031 74.460938 607.804688 88.121094 617.941406 98.511719 L 619.914062 100.539062 L 621.574219 98.25 C 629.761719 86.90625 646.300781 81.164062 663.800781 82.8125 C 687.472656 85.035156 698.902344 111.761719 702.75 119.417969 C 703.320312 120.558594 704.679688 121.039062 705.839844 120.523438 L 705.851562 120.519531 C 707.09375 119.964844 707.621094 118.5 707.015625 117.285156 C 702.894531 108.964844 690.894531 81.769531 664.332031 78.082031 C 646.355469 75.589844 629.019531 81.992188 619.40625 93.304688 C 608.875 83.59375 585.59375 69.347656 560.679688 74.789062 C 551.347656 76.832031 543.503906 80.355469 537.359375 85.109375 C 531.199219 77.398438 514.785156 60.730469 488.328125 61.371094 C 467.433594 61.875 452.363281 71.574219 445.6875 88.765625 C 439.574219 87.03125 422.464844 82.992188 412.546875 88.765625 C 408.738281 90.976562 406.363281 94.351562 405.480469 98.785156 L 404.800781 102.203125 L 408.230469 101.59375 C 413.101562 100.730469 417.667969 102.4375 420.453125 106.160156 C 422.574219 108.996094 423.085938 112.371094 421.792969 114.960938 C 420.089844 118.378906 415.492188 120.277344 408.832031 120.289062 C 400.191406 120.3125 391.363281 116.242188 385.21875 109.390625 C 379.550781 103.070312 376.796875 95.0625 377.65625 87.410156 C 379.59375 70.195312 395.171875 57.761719 412.386719 59.699219 C 417.804688 60.304688 423.011719 62.34375 427.4375 65.59375 L 432.171875 69.074219 L 431.101562 62.765625 C 431 62.195312 430.910156 61.65625 430.867188 61.144531 C 429.285156 38.726562 443.101562 22.648438 468.78125 17.035156 C 493.449219 11.640625 518.734375 26.4375 529.707031 37.695312 L 531.6875 39.722656 L 533.339844 37.425781 C 542.222656 25.125 560.253906 18.050781 579.128906 20.675781 C 605.617188 24.363281 617.402344 52.441406 621.433594 60.496094 C 622 61.632812 623.359375 62.113281 624.527344 61.59375 L 624.582031 61.566406 C 625.792969 61.027344 626.316406 59.605469 625.734375 58.425781 C 621.476562 49.78125 609.1875 19.007812 579.65625 15.949219 C 560.152344 13.929688 541.488281 20.203125 531.167969 32.476562 C 519.898438 22.015625 494.726562 6.492188 467.765625 12.386719 C 440.863281 18.269531 425.414062 35.625 426.007812 59.074219 C 421.949219 56.886719 417.5 55.484375 412.917969 54.964844 C 393.109375 52.742188 375.15625 67.054688 372.925781 86.875 C 371.914062 95.875 375.101562 105.238281 381.675781 112.566406 C 388.710938 120.414062 398.871094 125.078125 408.847656 125.050781 C 409.429688 125.046875 409.992188 125.035156 410.539062 125.007812 C 420.792969 124.519531 424.648438 119.898438 426.050781 117.089844 C 428.152344 112.878906 427.472656 107.59375 424.261719 103.3125 C 421.183594 99.191406 416.402344 96.800781 411.230469 96.628906 C 412.066406 95.078125 413.292969 93.835938 414.9375 92.878906 C 425.050781 86.992188 446.195312 93.882812 446.40625 93.953125 L 448.660156 94.699219 L 449.414062 92.453125 C 455.03125 75.707031 468.527344 66.597656 488.441406 66.128906 C 512.726562 65.539062 528.167969 81.355469 533.738281 88.261719 C 525.839844 95.914062 521.652344 106.058594 521.875 117.882812 C 518.171875 115.929688 514.128906 114.675781 509.960938 114.207031 C 501.019531 113.203125 492.226562 115.742188 485.195312 121.347656 C 478.167969 126.957031 473.746094 134.964844 472.742188 143.902344 C 471.800781 152.285156 474.769531 161.003906 480.882812 167.828125 C 487.429688 175.125 496.886719 179.46875 506.171875 179.441406 C 506.714844 179.441406 507.238281 179.429688 507.742188 179.40625 C 517.328125 178.945312 520.941406 174.609375 522.257812 171.972656 C 524.238281 168.015625 523.59375 163.058594 520.585938 159.035156 C 517.761719 155.253906 513.40625 153.023438 508.671875 152.789062 C 509.425781 151.496094 510.496094 150.449219 511.898438 149.636719 C 521.195312 144.21875 540.695312 150.578125 540.894531 150.644531 L 543.140625 151.390625 L 543.898438 149.140625 C 549.074219 133.71875 561.480469 125.324219 579.867188 124.890625 C 601.96875 124.359375 616.132812 138.550781 621.441406 145.050781 C 613.886719 151.878906 609.8125 161.097656 609.90625 171.925781 C 606.710938 170.300781 603.234375 169.25 599.667969 168.851562 C 583.179688 166.996094 568.261719 178.902344 566.40625 195.382812 C 565.566406 202.882812 568.21875 210.679688 573.6875 216.777344 C 579.535156 223.296875 587.980469 227.175781 596.28125 227.152344 C 596.765625 227.152344 597.234375 227.140625 597.6875 227.117188 C 606.308594 226.710938 609.578125 222.777344 610.765625 220.390625 C 612.5625 216.789062 611.984375 212.292969 609.257812 208.648438 C 606.800781 205.355469 603.058594 203.367188 598.96875 203.039062 C 599.59375 202.109375 600.429688 201.339844 601.484375 200.726562 C 608.226562 196.800781 622.140625 200.054688 626.933594 201.640625 L 629.183594 202.382812 L 629.9375 200.140625 C 634.484375 186.601562 645.394531 179.234375 661.535156 178.855469 C 680.746094 178.390625 693.140625 190.574219 697.945312 196.378906 C 695.535156 199.007812 694.046875 201.726562 693.203125 203.652344 C 685.839844 200.554688 663.675781 193.199219 650.492188 210.316406 C 644.019531 218.714844 641.585938 228.925781 643.984375 237.628906 C 646.066406 245.214844 651.46875 250.929688 659.605469 254.15625 C 671.636719 258.933594 682.242188 257.902344 687.964844 251.398438 C 691.585938 247.285156 692.402344 241.597656 689.992188 237.242188 C 688.035156 233.707031 684.316406 231.621094 679.625 231.269531 C 682.535156 227.855469 686.363281 225.417969 690.425781 224.496094 C 695.753906 223.289062 701.390625 224.671875 706.734375 228.488281 C 720.488281 238.316406 717.28125 259.179688 717.246094 259.390625 L 715.964844 267.191406 L 721.34375 261.386719 C 721.890625 260.796875 734.953125 247.035156 753.472656 255.230469 C 768.652344 261.949219 768.917969 277.027344 768.480469 282.457031 C 768.390625 283.589844 769.183594 284.59375 770.300781 284.792969 L 770.589844 284.847656 C 771.890625 285.082031 773.105469 284.144531 773.195312 282.828125 C 773.632812 276.347656 773.070312 258.703125 755.398438 250.878906 C 740.589844 244.320312 728.570312 250.035156 722.382812 254.375 C 722.492188 246.570312 720.894531 232.757812 709.503906 224.617188 C 703.027344 219.988281 696.066406 218.339844 689.375 219.855469 C 682.644531 221.378906 676.472656 226.1875 672.863281 232.71875 L 670.492188 237.007812 L 675.332031 236.21875 C 680.371094 235.398438 684.203125 236.609375 685.828125 239.546875 C 687.265625 242.144531 686.6875 245.648438 684.390625 248.257812 C 680.054688 253.183594 671.445312 253.734375 661.359375 249.734375 C 654.667969 247.074219 650.246094 242.453125 648.570312 236.363281 C 646.570312 229.097656 648.699219 220.441406 654.261719 213.21875 C 667.710938 195.757812 692.398438 208.4375 693.441406 208.988281 L 696.082031 210.367188 L 696.851562 207.488281 C 696.871094 207.410156 699.0625 199.503906 706.878906 195.417969 C 713.65625 191.886719 722.640625 192.101562 733.589844 196.070312 C 750.972656 202.359375 754.832031 225.113281 754.867188 225.339844 L 755.40625 228.707031 L 758.382812 227.042969 C 758.582031 226.929688 778.519531 215.976562 793.121094 226.96875 C 804.996094 235.914062 805.1875 251.519531 804.824219 257.21875 C 804.742188 258.445312 805.613281 259.53125 806.832031 259.722656 C 808.214844 259.941406 809.488281 258.929688 809.589844 257.535156 C 810.054688 250.972656 809.828125 233.59375 795.984375 223.167969 " fill-opacity="1" fill-rule="nonzero"/></g><path fill="#ffffff" d="M 726.195312 204.976562 C 721.035156 202.394531 715.175781 201.882812 709.769531 204.042969 C 705.550781 205.730469 707.390625 212.632812 711.664062 210.929688 C 715.285156 209.480469 719.054688 209.371094 722.59375 211.140625 C 726.6875 213.191406 730.308594 207.035156 726.195312 204.976562 " fill-opacity="1" fill-rule="nonzero"/><path fill="#ffffff" d="M 634.144531 158.722656 C 638.621094 151.304688 646.9375 149.546875 655.066406 149.957031 C 659.660156 150.1875 659.648438 143.046875 655.066406 142.820312 C 644.386719 142.28125 633.746094 145.570312 627.980469 155.117188 C 625.597656 159.058594 631.769531 162.652344 634.144531 158.722656 " fill-opacity="1" fill-rule="nonzero"/><path fill="#ffffff" d="M 542.738281 101.816406 C 547.386719 96.332031 553.828125 93.925781 560.9375 94.855469 C 565.480469 95.453125 565.433594 88.308594 560.9375 87.71875 C 552.183594 86.570312 543.386719 90.046875 537.6875 96.769531 C 534.738281 100.253906 539.761719 105.332031 542.738281 101.816406 " fill-opacity="1" fill-rule="nonzero"/><path fill="#ffffff" d="M 448.351562 52.800781 C 448.984375 46.527344 454.578125 41.332031 460.820312 40.945312 C 465.382812 40.664062 465.414062 33.523438 460.820312 33.808594 C 450.417969 34.453125 442.253906 42.492188 441.210938 52.800781 C 440.753906 57.371094 447.894531 57.339844 448.351562 52.800781 " fill-opacity="1" fill-rule="nonzero"/><path fill="#ffffff" d="M 580.546875 193.054688 C 580.632812 191.769531 581.136719 190.332031 581.996094 189.28125 C 582.960938 188.089844 583.160156 186.417969 581.996094 185.25 C 580.992188 184.246094 578.9375 184.050781 577.964844 185.25 C 576.097656 187.546875 575.046875 190.089844 574.847656 193.054688 C 574.742188 194.59375 576.234375 195.902344 577.699219 195.902344 C 579.324219 195.902344 580.441406 194.597656 580.546875 193.054688 " fill-opacity="1" fill-rule="nonzero"/><path fill="#ffffff" d="M 392.191406 86.441406 C 393.496094 82.722656 396.140625 79.804688 399.566406 77.914062 C 403.589844 75.695312 399.992188 69.527344 395.960938 71.75 C 390.871094 74.5625 387.222656 79.089844 385.304688 84.546875 C 383.785156 88.890625 390.679688 90.757812 392.191406 86.441406 " fill-opacity="1" fill-rule="nonzero"/></svg>